mtllib Asset 99.mtl
# Vertex Positions: 
g groupNumber_0
v 0.461925 0.821208 -0.1765
v 0.461925 0.889636 -0.1765
v -0.461925 0.889636 -0.1765
v -0.461925 -0.889636 -0.1765
v 0.461925 -0.889636 -0.1765
v 0.461925 -0.821208 -0.1765
v -0.393497 -0.821208 -0.1765
v -0.393497 -0.0342141 -0.1765
v 0.461925 -0.0342141 -0.1765
v 0.461925 0.0342141 -0.1765
v -0.393497 0.0342141 -0.1765
v -0.393497 0.821208 -0.1765
v 0.461925 0.821208 0.1765
v 0.461925 0.889636 0.1765
v -0.461925 0.889636 0.1765
v -0.461925 -0.889636 0.1765
v 0.461925 -0.889636 0.1765
v 0.461925 -0.821208 0.1765
v -0.393497 -0.821208 0.1765
v -0.393497 -0.0342141 0.1765
v 0.461925 -0.0342141 0.1765
v 0.461925 0.0342141 0.1765
v -0.393497 0.0342141 0.1765
v -0.393497 0.821208 0.1765
v 0.461925 0.855422 0
v 0 0.889636 0
v -0.461925 1.42109e-14 0
v 0 -0.889636 0
v 0.461925 -0.855422 0
v 0.0342141 -0.821208 0
v -0.393497 -0.427711 0
v 0.0342141 -0.0342141 0
v 0.461925 1.42109e-14 0
v 0.0342141 0.0342141 0
v -0.393497 0.427711 0
v 0.0342141 0.821208 0


# Vertex Texture Coordinates :
vt 0.25804 0.477854
vt 0.25804 0.496967
vt 0 0.496967
vt 0 0
vt 0.25804 0
vt 0.25804 0.0191126
vt 0.0191126 0.0191126
vt 0.0191126 0.238927
vt 0.25804 0.238927
vt 0.25804 0.25804
vt 0.0191126 0.25804
vt 0.0191126 0.477854
vt 0 0.980887
vt 0 1
vt 0.25804 1
vt 0.25804 0.503033
vt 0 0.503033
vt 0 0.522146
vt 0.238927 0.522146
vt 0.238927 0.74196
vt 0 0.74196
vt 0 0.761073
vt 0.238927 0.761073
vt 0.238927 0.980887
vt 0.264149 2.24987e-05
vt 0.283262 2.24987e-05
vt 0.289372 2.24987e-05
vt 0.547411 2.24987e-05
vt 0.289357 0.10473
vt 0.786324 0.10473
vt 0.553506 2.24987e-05
vt 0.811546 2.24987e-05
vt 0.817656 2.24987e-05
vt 0.836768 2.24987e-05
vt 0.289403 0.209438
vt 0.528331 0.209438
vt 0.534461 0.209438
vt 0.754275 0.209438
vt 0.760406 0.209438
vt 0.999333 0.209438
vt 0.842892 2.24987e-05
vt 0.862005 2.24987e-05
vt 0.289403 0.314145
vt 0.528331 0.314145
vt 0.534461 0.314145
vt 0.754275 0.314145
vt 0.760406 0.314145
vt 0.999333 0.314145
vt 0.264149 0.0986186
vt 0.283262 0.0986186
vt 0.289372 0.0986186
vt 0.547411 0.0986186
vt 0.289357 0.203326
vt 0.786324 0.203326
vt 0.553506 0.0986186
vt 0.811546 0.0986186
vt 0.817656 0.0986186
vt 0.836768 0.0986186
vt 0.289403 0.308034
vt 0.528331 0.308034
vt 0.534461 0.308034
vt 0.754275 0.308034
vt 0.760406 0.308034
vt 0.999333 0.308034
vt 0.842892 0.0986186
vt 0.862005 0.0986186
vt 0.289403 0.412741
vt 0.528331 0.412741
vt 0.534461 0.412741
vt 0.754275 0.412741
vt 0.760406 0.412741
vt 0.999333 0.412741
vt 0.273706 0.0493206
vt 0.418391 0.0493206
vt 0.537841 0.154028
vt 0.682526 0.0493206
vt 0.827212 0.0493206
vt 0.408867 0.258736
vt 0.644368 0.258736
vt 0.879869 0.258736
vt 0.852449 0.0493206
vt 0.408867 0.363443
vt 0.644368 0.363443
vt 0.879869 0.363443


# Vertex Surface Normals: 
vn 0 0 1
vn 0 0 -1
vn 1 0 0
vn 1 0 0
vn 1 0 0
vn 1 0 0
vn 1 0 0
vn 0 1 0
vn 0 1 0
vn 0 1 0
vn 0 1 0
vn 0 1 0
vn -1 0 0
vn -1 0 0
vn -1 0 0
vn -1 0 0
vn -1 0 0
vn 0 -1 0
vn 0 -1 0
vn 0 -1 0
vn 0 -1 0
vn 0 -1 0
vn 1 0 0
vn 1 0 0
vn 1 0 0
vn 1 0 0
vn 1 0 0
vn 0 1 0
vn 0 1 0
vn 0 1 0
vn 0 1 0
vn 0 1 0
vn 1 0 0
vn 1 0 0
vn 1 0 0
vn 1 0 0
vn 1 0 0
vn 0 -1 0
vn 0 -1 0
vn 0 -1 0
vn 0 -1 0
vn 0 -1 0
vn 1 0 0
vn 1 0 0
vn 1 0 0
vn 1 0 0
vn 1 0 0
vn 0 1 0
vn 0 1 0
vn 0 1 0
vn 0 1 0
vn 0 1 0
vn 1 0 0
vn 1 0 0
vn 1 0 0
vn 1 0 0
vn 1 0 0
vn 0 -1 0
vn 0 -1 0
vn 0 -1 0
vn 0 -1 0
vn 0 -1 0


# Faces: 
usemtl material0
f 16/4/1 19/7/1 20/8/1
f 19/7/1 16/4/1 17/5/1
f 16/4/1 20/8/1 23/11/1
f 15/3/1 23/11/1 24/12/1
f 23/11/1 15/3/1 16/4/1
f 15/3/1 24/12/1 14/2/1
f 20/8/1 21/9/1 23/11/1
f 17/5/1 18/6/1 19/7/1
f 13/1/1 14/2/1 24/12/1
f 21/9/1 22/10/1 23/11/1
f 7/19/2 4/16/2 8/20/2
f 4/16/2 7/19/2 5/17/2
f 8/20/2 4/16/2 11/23/2
f 11/23/2 3/15/2 12/24/2
f 3/15/2 11/23/2 4/16/2
f 12/24/2 3/15/2 2/14/2
f 9/21/2 8/20/2 11/23/2
f 6/18/2 5/17/2 7/19/2
f 2/14/2 1/13/2 12/24/2
f 10/22/2 9/21/2 11/23/2
f 25/73/3 1/25/4 2/26/5
f 25/73/3 2/26/5 14/50/6
f 25/73/3 14/50/6 13/49/7
f 25/73/3 13/49/7 1/25/4
f 26/74/8 2/27/9 3/28/10
f 26/74/8 3/28/10 15/52/11
f 26/74/8 15/52/11 14/51/12
f 26/74/8 14/51/12 2/27/9
f 27/75/13 3/29/14 4/30/15
f 27/75/13 4/30/15 16/54/16
f 27/75/13 16/54/16 15/53/17
f 27/75/13 15/53/17 3/29/14
f 28/76/18 4/31/19 5/32/20
f 28/76/18 5/32/20 17/56/21
f 28/76/18 17/56/21 16/55/22
f 28/76/18 16/55/22 4/31/19
f 29/77/23 5/33/24 6/34/25
f 29/77/23 6/34/25 18/58/26
f 29/77/23 18/58/26 17/57/27
f 29/77/23 17/57/27 5/33/24
f 30/78/28 6/35/29 7/36/30
f 30/78/28 7/36/30 19/60/31
f 30/78/28 19/60/31 18/59/32
f 30/78/28 18/59/32 6/35/29
f 31/79/33 7/37/34 8/38/35
f 31/79/33 8/38/35 20/62/36
f 31/79/33 20/62/36 19/61/37
f 31/79/33 19/61/37 7/37/34
f 32/80/38 8/39/39 9/40/40
f 32/80/38 9/40/40 21/64/41
f 32/80/38 21/64/41 20/63/42
f 32/80/38 20/63/42 8/39/39
f 33/81/43 9/41/44 10/42/45
f 33/81/43 10/42/45 22/66/46
f 33/81/43 22/66/46 21/65/47
f 33/81/43 21/65/47 9/41/44
f 34/82/48 10/43/49 11/44/50
f 34/82/48 11/44/50 23/68/51
f 34/82/48 23/68/51 22/67/52
f 34/82/48 22/67/52 10/43/49
f 35/83/53 11/45/54 12/46/55
f 35/83/53 12/46/55 24/70/56
f 35/83/53 24/70/56 23/69/57
f 35/83/53 23/69/57 11/45/54
f 36/84/58 12/47/59 1/48/60
f 36/84/58 1/48/60 13/72/61
f 36/84/58 13/72/61 24/71/62
f 36/84/58 24/71/62 12/47/59
