mtllib Asset 78.mtl
# Vertex Positions: 
g groupNumber_0
v 0.0342141 -0.00803213 -0.1765
v 0.483014 0.889636 -0.1765
v 0.406571 0.889636 -0.1765
v -1.42109e-14 0.0764776 -0.1765
v -0.406588 0.889636 -0.1765
v -0.483014 0.889636 -0.1765
v -0.0342313 -0.00803213 -0.1765
v -0.0342313 -0.889636 -0.1765
v 0.0342141 -0.889636 -0.1765
v 0.0342141 -0.00803213 0.1765
v 0.483014 0.889636 0.1765
v 0.406571 0.889636 0.1765
v -1.42109e-14 0.0764776 0.1765
v -0.406588 0.889636 0.1765
v -0.483014 0.889636 0.1765
v -0.0342313 -0.00803213 0.1765
v -0.0342313 -0.889636 0.1765
v 0.0342141 -0.889636 0.1765
v 0.258614 0.440802 0
v 0.444792 0.889636 0
v 0.203285 0.483057 0
v -0.203294 0.483057 0
v -0.444801 0.889636 0
v -0.258622 0.440802 0
v -0.0342313 -0.448834 0
v -8.61804e-06 -0.889636 0
v 0.0342141 -0.448834 0


# Vertex Texture Coordinates :
vt 0.14441 0.246152
vt 0.269715 0.496781
vt 0.248372 0.496781
vt 0.134858 0.269747
vt 0.0213381 0.496781
vt 0 0.496781
vt 0.1253 0.246152
vt 0.1253 8.11303e-06
vt 0.14441 8.11303e-06
vt 0.125305 0.749371
vt 0 1
vt 0.0213429 1
vt 0.134858 0.772966
vt 0.248377 1
vt 0.269715 1
vt 0.144415 0.749371
vt 0.144415 0.503227
vt 0.125305 0.503227
vt 0.276176 0
vt 0.556383 0
vt 0.562896 0
vt 0.584239 0
vt 0.590769 0
vt 0.844599 0
vt 0.276192 0.104987
vt 0.530024 0.104987
vt 0.851131 0
vt 0.87247 0
vt 0.276147 0.209974
vt 0.556352 0.209974
vt 0.802496 0.209974
vt 0.878974 0
vt 0.898084 0
vt 0.536529 0.104987
vt 0.782673 0.104987
vt 0.276176 0.0985577
vt 0.556383 0.0985577
vt 0.562896 0.0985577
vt 0.584239 0.0985577
vt 0.590769 0.0985577
vt 0.844599 0.0985577
vt 0.276192 0.203545
vt 0.530024 0.203545
vt 0.851131 0.0985577
vt 0.87247 0.0985577
vt 0.276147 0.308532
vt 0.556352 0.308532
vt 0.802496 0.308532
vt 0.878974 0.0985577
vt 0.898084 0.0985577
vt 0.536529 0.203545
vt 0.782673 0.203545
vt 0.41628 0.0492788
vt 0.573568 0.0492788
vt 0.717684 0.0492788
vt 0.403108 0.154266
vt 0.861801 0.0492788
vt 0.41625 0.259253
vt 0.679424 0.259253
vt 0.888529 0.0492788
vt 0.659601 0.154266


# Vertex Surface Normals: 
vn 0 0 1
vn 0 0 -1
vn 0.894441 -0.447186 0
vn 0.973253 -0.229738 -1.08628e-17
vn 0.894441 -0.447186 -2.11444e-17
vn 0.894441 -0.447186 2.11444e-17
vn 0.973253 -0.229738 1.08628e-17
vn 0 1 0
vn 0 1 0
vn 0 1 0
vn 0 1 0
vn 0 1 0
vn -0.894431 0.447206 0
vn -0.894431 0.447206 0
vn -0.894431 0.447206 0
vn -0.894431 0.447206 0
vn -0.894431 0.447206 0
vn 0.894423 0.447221 0
vn 0.894423 0.447221 0
vn 0.894423 0.447221 0
vn 0.894423 0.447221 0
vn 0.894423 0.447221 0
vn 0 1 0
vn 0 1 0
vn 0 1 0
vn 0 1 0
vn 0 1 0
vn -0.894448 -0.447172 0
vn -0.894448 -0.447172 -4.22894e-17
vn -0.973254 -0.22973 -2.17258e-17
vn -0.973254 -0.22973 2.17258e-17
vn -0.894448 -0.447172 4.22894e-17
vn -1 0 0
vn -1 0 0
vn -1 0 0
vn 0 -1 0
vn 0 -1 0
vn 0 -1 0
vn 0 -1 0
vn 0 -1 0
vn 1 0 0
vn 1 0 0
vn 1 0 0


# Faces: 
usemtl material0
f 16/7/1 17/8/1 18/9/1
f 13/4/1 14/5/1 15/6/1
f 15/6/1 16/7/1 13/4/1
f 10/1/1 13/4/1 16/7/1
f 13/4/1 11/2/1 12/3/1
f 11/2/1 13/4/1 10/1/1
f 10/1/1 16/7/1 18/9/1
f 8/17/2 7/16/2 9/18/2
f 5/14/2 4/13/2 6/15/2
f 7/16/2 6/15/2 4/13/2
f 4/13/2 1/10/2 7/16/2
f 2/11/2 4/13/2 3/12/2
f 4/13/2 2/11/2 1/10/2
f 7/16/2 1/10/2 9/18/2
f 19/53/3 1/19/4 2/20/5
f 19/53/3 2/20/5 11/37/6
f 19/53/3 11/37/6 10/36/7
f 19/53/3 10/36/7 1/19/4
f 20/54/8 2/21/9 3/22/10
f 20/54/8 3/22/10 12/39/11
f 20/54/8 12/39/11 11/38/12
f 20/54/8 11/38/12 2/21/9
f 21/55/13 3/23/14 4/24/15
f 21/55/13 4/24/15 13/41/16
f 21/55/13 13/41/16 12/40/17
f 21/55/13 12/40/17 3/23/14
f 22/56/18 4/25/19 5/26/20
f 22/56/18 5/26/20 14/43/21
f 22/56/18 14/43/21 13/42/22
f 22/56/18 13/42/22 4/25/19
f 23/57/23 5/27/24 6/28/25
f 23/57/23 6/28/25 15/45/26
f 23/57/23 15/45/26 14/44/27
f 23/57/23 14/44/27 5/27/24
f 24/58/28 6/29/29 7/30/30
f 24/58/28 7/30/30 16/47/31
f 24/58/28 16/47/31 15/46/32
f 24/58/28 15/46/32 6/29/29
f 25/59/33 7/30/30 8/31/34
f 25/59/33 8/31/34 17/48/35
f 25/59/33 17/48/35 16/47/31
f 25/59/33 16/47/31 7/30/30
f 26/60/36 8/32/37 9/33/38
f 26/60/36 9/33/38 18/50/39
f 26/60/36 18/50/39 17/49/40
f 26/60/36 17/49/40 8/32/37
f 27/61/41 9/34/42 1/35/4
f 27/61/41 1/35/4 10/52/7
f 27/61/41 10/52/7 18/51/43
f 27/61/41 18/51/43 9/34/42
