mtllib Asset 59.mtl
# Vertex Positions: 
g groupNumber_0
v -0.0342055 0.597601 -0.1765
v -0.0342055 0.0342141 -0.1765
v -0.393497 0.0342141 -0.1765
v -0.393497 0.597601 -0.1765
v -0.0342055 0.597601 0.1765
v -0.0342055 0.0342141 0.1765
v -0.393497 0.0342141 0.1765
v -0.393497 0.597601 0.1765
v -0.0342055 0.315907 0
v -0.213851 0.0342141 0
v -0.393497 0.315907 0
v -0.213851 0.597601 0
v 0.393497 -0.0342141 -0.1765
v 0.393497 -0.598101 -0.1765
v 0.0342227 -0.598101 -0.1765
v 0.0342227 -0.0342141 -0.1765
v 0.393497 -0.0342141 0.1765
v 0.393497 -0.598101 0.1765
v 0.0342227 -0.598101 0.1765
v 0.0342227 -0.0342141 0.1765
v 0.393497 -0.316157 0
v 0.21386 -0.598101 0
v 0.0342227 -0.316157 0
v 0.21386 -0.0342141 0
v 0.461925 0.597601 -0.1765
v 0.461925 0.666029 -0.1765
v 0.0342227 0.666029 -0.1765
v 0.0342227 0.889636 -0.1765
v -0.0342055 0.889636 -0.1765
v -0.0342055 0.666029 -0.1765
v -0.461925 0.666029 -0.1765
v -0.461925 -0.0342141 -0.1765
v -0.0342055 -0.0342141 -0.1765
v -0.0342055 -0.598101 -0.1765
v -0.461925 -0.598101 -0.1765
v -0.461925 -0.666546 -0.1765
v -0.0342055 -0.666546 -0.1765
v -0.0342055 -0.889636 -0.1765
v 0.0342227 -0.889636 -0.1765
v 0.0342227 -0.666546 -0.1765
v 0.461925 -0.666546 -0.1765
v 0.461925 0.0342141 -0.1765
v 0.0342227 0.0342141 -0.1765
v 0.0342227 0.597601 -0.1765
v 0.461925 0.597601 0.1765
v 0.461925 0.666029 0.1765
v 0.0342227 0.666029 0.1765
v 0.0342227 0.889636 0.1765
v -0.0342055 0.889636 0.1765
v -0.0342055 0.666029 0.1765
v -0.461925 0.666029 0.1765
v -0.461925 -0.0342141 0.1765
v -0.0342055 -0.0342141 0.1765
v -0.0342055 -0.598101 0.1765
v -0.461925 -0.598101 0.1765
v -0.461925 -0.666546 0.1765
v -0.0342055 -0.666546 0.1765
v -0.0342055 -0.889636 0.1765
v 0.0342227 -0.889636 0.1765
v 0.0342227 -0.666546 0.1765
v 0.461925 -0.666546 0.1765
v 0.461925 0.0342141 0.1765
v 0.0342227 0.0342141 0.1765
v 0.0342227 0.597601 0.1765
v 0.461925 0.631815 0
v 0.248074 0.666029 0
v 0.0342227 0.777832 0
v 8.61845e-06 0.889636 0
v -0.0342055 0.777832 0
v -0.248065 0.666029 0
v -0.461925 0.315907 0
v -0.248065 -0.0342141 0
v -0.0342055 -0.316157 0
v -0.248065 -0.598101 0
v -0.461925 -0.632323 0
v -0.248065 -0.666546 0
v -0.0342055 -0.778091 0
v 8.61845e-06 -0.889636 0
v 0.0342227 -0.778091 0
v 0.248074 -0.666546 0
v 0.461925 -0.316166 0
v 0.248074 0.0342141 0
v 0.0342227 0.315907 0
v 0.248074 0.597601 0


# Vertex Texture Coordinates :
vt 0.147288 0.51209
vt 0.147288 0.318103
vt 0.0235756 0.318103
vt 0.0235756 0.51209
vt 0.294555 0.294541
vt 0.294555 0.100382
vt 0.170849 0.100382
vt 0.170849 0.294541
vt 0.318117 0.51209
vt 0.318117 0.535651
vt 0.170849 0.535651
vt 0.170849 0.612644
vt 0.147288 0.612644
vt 0.147288 0.535651
vt 1.41938e-05 0.535651
vt 1.41938e-05 0.294541
vt 0.147288 0.294541
vt 0.147288 0.100382
vt 1.41938e-05 0.100382
vt 1.41938e-05 0.0768149
vt 0.147288 0.0768149
vt 0.147288 0
vt 0.170849 0
vt 0.170849 0.0768149
vt 0.318117 0.0768149
vt 0.318117 0.318103
vt 0.170849 0.318103
vt 0.170849 0.51209
vt 0.49646 0.51209
vt 0.49646 0.318103
vt 0.620172 0.318103
vt 0.620172 0.51209
vt 0.349192 0.294541
vt 0.349192 0.100382
vt 0.472899 0.100382
vt 0.472899 0.294541
vt 0.325631 0.51209
vt 0.325631 0.535651
vt 0.472899 0.535651
vt 0.472899 0.612644
vt 0.49646 0.612644
vt 0.49646 0.535651
vt 0.643734 0.535651
vt 0.643734 0.294541
vt 0.49646 0.294541
vt 0.49646 0.100382
vt 0.643734 0.100382
vt 0.643734 0.0768149
vt 0.49646 0.0768149
vt 0.49646 0
vt 0.472899 0
vt 0.472899 0.0768149
vt 0.325631 0.0768149
vt 0.325631 0.318103
vt 0.472899 0.318103
vt 0.472899 0.51209
vt 0 0.62015
vt 0.193987 0.62015
vt 6.28868e-05 0.74923
vt 0.123775 0.74923
vt 0.325617 0.62015
vt 0.519604 0.62015
vt 6.28868e-05 0.87831
vt 0.123775 0.87831
vt 0 0.741696
vt 0.193987 0.741696
vt 6.28868e-05 0.870776
vt 0.123775 0.870776
vt 0.325617 0.741696
vt 0.519604 0.741696
vt 6.28868e-05 0.999856
vt 0.123775 0.999856
vt 0.0969935 0.680923
vt 0.061919 0.810003
vt 0.42261 0.680923
vt 0.061919 0.939083
vt 0.32568 0.74923
vt 0.519839 0.74923
vt 0.325683 0.87831
vt 0.449389 0.87831
vt 0.651297 2.77357e-05
vt 0.845456 2.77357e-05
vt 0.853071 2.77357e-05
vt 0.976777 2.77357e-05
vt 0.32568 0.870776
vt 0.519839 0.870776
vt 0.325683 0.999856
vt 0.449389 0.999856
vt 0.651297 0.121574
vt 0.845456 0.121574
vt 0.853071 0.121574
vt 0.976777 0.121574
vt 0.42276 0.810003
vt 0.387536 0.939083
vt 0.748376 0.0608007
vt 0.914924 0.0608007
vt 0.52742 0.74923
vt 0.550982 0.74923
vt 0.456967 0.87831
vt 0.604234 0.87831
vt 0.558514 0.74923
vt 0.635507 0.74923
vt 0.611778 0.87831
vt 0.63534 0.87831
vt 0.201487 0.62015
vt 0.27848 0.62015
vt 0.131347 0.74923
vt 0.278621 0.74923
vt 0.651304 0.129108
vt 0.892414 0.129108
vt 0.131347 0.87831
vt 0.278621 0.87831
vt 0.651297 0.258188
vt 0.845456 0.258188
vt 0.651257 0.387268
vt 0.79853 0.387268
vt 0.286159 0.74923
vt 0.309726 0.74923
vt 0.806063 0.387268
vt 0.953337 0.387268
vt 0.899999 0.129108
vt 0.976814 0.129108
vt 0.286162 0.87831
vt 0.309723 0.87831
vt 0.527118 0.62015
vt 0.603933 0.62015
vt 0.65126 0.516348
vt 0.798527 0.516348
vt 0.65129 0.645428
vt 0.892578 0.645428
vt 0.806066 0.516348
vt 0.953334 0.516348
vt 0.651233 0.774508
vt 0.84522 0.774508
vt 0.852732 0.774508
vt 1 0.774508
vt 0.52742 0.870776
vt 0.550982 0.870776
vt 0.456967 0.999856
vt 0.604234 0.999856
vt 0.558514 0.870776
vt 0.635507 0.870776
vt 0.611778 0.999856
vt 0.63534 0.999856
vt 0.201487 0.741696
vt 0.27848 0.741696
vt 0.131347 0.870776
vt 0.278621 0.870776
vt 0.651304 0.250654
vt 0.892414 0.250654
vt 0.131347 0.999856
vt 0.278621 0.999856
vt 0.651297 0.379734
vt 0.845456 0.379734
vt 0.651257 0.508814
vt 0.79853 0.508814
vt 0.286159 0.870776
vt 0.309726 0.870776
vt 0.806063 0.508814
vt 0.953337 0.508814
vt 0.899999 0.250654
vt 0.976814 0.250654
vt 0.286162 0.999856
vt 0.309723 0.999856
vt 0.527118 0.741696
vt 0.603933 0.741696
vt 0.65126 0.637894
vt 0.798527 0.637894
vt 0.65129 0.766974
vt 0.892578 0.766974
vt 0.806066 0.637894
vt 0.953334 0.637894
vt 0.651233 0.896054
vt 0.84522 0.896054
vt 0.852732 0.896054
vt 1 0.896054
vt 0.539201 0.810003
vt 0.530601 0.939083
vt 0.59701 0.810003
vt 0.623559 0.939083
vt 0.239984 0.680923
vt 0.204984 0.810003
vt 0.771859 0.189881
vt 0.204984 0.939083
vt 0.748376 0.318961
vt 0.724894 0.448041
vt 0.297942 0.810003
vt 0.8797 0.448041
vt 0.938407 0.189881
vt 0.297942 0.939083
vt 0.565525 0.680923
vt 0.724894 0.577121
vt 0.771934 0.706201
vt 0.8797 0.577121
vt 0.748227 0.835281
vt 0.926366 0.835281


# Vertex Surface Normals: 
vn 0 0 1
vn 0 0 -1
vn -1 0 0
vn -1 0 0
vn -1 0 0
vn -1 0 0
vn -1 0 0
vn 0 1 0
vn 0 1 0
vn 0 1 0
vn 0 1 0
vn 0 1 0
vn 1 0 0
vn 1 0 0
vn 1 0 0
vn 1 0 0
vn 1 0 0
vn 0 -1 0
vn 0 -1 0
vn 0 -1 0
vn 0 -1 0
vn 0 -1 0
vn -1 0 0
vn -1 0 0
vn -1 0 0
vn -1 0 0
vn -1 0 0
vn 0 1 0
vn 0 1 0
vn 0 1 0
vn 0 1 0
vn 0 1 0
vn 1 0 0
vn 1 0 0
vn 1 0 0
vn 1 0 0
vn 1 0 0
vn 0 -1 0
vn 0 -1 0
vn 0 -1 0
vn 0 -1 0
vn 0 -1 0
vn 1 0 0
vn 1 0 0
vn 1 0 0
vn 1 0 0
vn 1 0 0
vn 0 1 0
vn 0 1 0
vn 0 1 0
vn 0 1 0
vn 0 1 0
vn 1 0 0
vn 1 0 0
vn 1 0 0
vn 1 0 0
vn 1 0 0
vn 0 1 0
vn 0 1 0
vn 0 1 0
vn 0 1 0
vn 0 1 0
vn -1 0 0
vn -1 0 0
vn -1 0 0
vn -1 0 0
vn -1 0 0
vn 0 1 0
vn 0 1 0
vn 0 1 0
vn 0 1 0
vn 0 1 0
vn -1 0 0
vn -1 0 0
vn -1 0 0
vn -1 0 0
vn -1 0 0
vn 0 -1 0
vn 0 -1 0
vn 0 -1 0
vn 0 -1 0
vn 0 -1 0
vn -1 0 0
vn -1 0 0
vn -1 0 0
vn -1 0 0
vn -1 0 0
vn 0 1 0
vn 0 1 0
vn 0 1 0
vn 0 1 0
vn 0 1 0
vn -1 0 0
vn -1 0 0
vn -1 0 0
vn -1 0 0
vn -1 0 0
vn 0 -1 0
vn 0 -1 0
vn 0 -1 0
vn 0 -1 0
vn 0 -1 0
vn -1 0 0
vn -1 0 0
vn -1 0 0
vn -1 0 0
vn -1 0 0
vn 0 -1 0
vn 0 -1 0
vn 0 -1 0
vn 0 -1 0
vn 0 -1 0
vn 1 0 0
vn 1 0 0
vn 1 0 0
vn 1 0 0
vn 1 0 0
vn 0 -1 0
vn 0 -1 0
vn 0 -1 0
vn 0 -1 0
vn 0 -1 0
vn 1 0 0
vn 1 0 0
vn 1 0 0
vn 1 0 0
vn 1 0 0
vn 0 1 0
vn 0 1 0
vn 0 1 0
vn 0 1 0
vn 0 1 0
vn 1 0 0
vn 1 0 0
vn 1 0 0
vn 1 0 0
vn 1 0 0
vn 0 -1 0
vn 0 -1 0
vn 0 -1 0
vn 0 -1 0
vn 0 -1 0


# Faces: 
usemtl material0
f 55/19/1 56/20/1 57/21/1
f 57/21/1 58/22/1 59/23/1
f 53/17/1 54/18/1 19/7/1
f 57/21/1 60/24/1 54/18/1
f 57/21/1 54/18/1 55/19/1
f 52/16/1 53/17/1 7/3/1
f 52/16/1 8/4/1 51/15/1
f 8/4/1 52/16/1 7/3/1
f 8/4/1 50/14/1 51/15/1
f 5/1/1 6/2/1 63/27/1
f 49/13/1 50/14/1 47/11/1
f 5/1/1 64/28/1 50/14/1
f 5/1/1 50/14/1 8/4/1
f 7/3/1 53/17/1 6/2/1
f 53/17/1 20/8/1 6/2/1
f 59/23/1 60/24/1 57/21/1
f 19/7/1 60/24/1 18/6/1
f 60/24/1 19/7/1 54/18/1
f 17/5/1 18/6/1 62/26/1
f 18/6/1 60/24/1 61/25/1
f 20/8/1 17/5/1 63/27/1
f 18/6/1 61/25/1 62/26/1
f 19/7/1 20/8/1 53/17/1
f 63/27/1 64/28/1 5/1/1
f 47/11/1 64/28/1 45/9/1
f 64/28/1 47/11/1 50/14/1
f 46/10/1 47/11/1 45/9/1
f 63/27/1 17/5/1 62/26/1
f 47/11/1 48/12/1 49/13/1
f 20/8/1 63/27/1 6/2/1
f 36/48/2 35/47/2 37/49/2
f 38/50/2 37/49/2 39/51/2
f 34/46/2 33/45/2 15/35/2
f 40/52/2 37/49/2 34/46/2
f 34/46/2 37/49/2 35/47/2
f 33/45/2 32/44/2 3/31/2
f 4/32/2 32/44/2 31/43/2
f 32/44/2 4/32/2 3/31/2
f 30/42/2 4/32/2 31/43/2
f 2/30/2 1/29/2 43/55/2
f 30/42/2 29/41/2 27/39/2
f 44/56/2 1/29/2 30/42/2
f 30/42/2 1/29/2 4/32/2
f 33/45/2 3/31/2 2/30/2
f 16/36/2 33/45/2 2/30/2
f 40/52/2 39/51/2 37/49/2
f 40/52/2 15/35/2 14/34/2
f 15/35/2 40/52/2 34/46/2
f 14/34/2 13/33/2 42/54/2
f 40/52/2 14/34/2 41/53/2
f 13/33/2 16/36/2 43/55/2
f 41/53/2 14/34/2 42/54/2
f 16/36/2 15/35/2 33/45/2
f 44/56/2 43/55/2 1/29/2
f 44/56/2 27/39/2 25/37/2
f 27/39/2 44/56/2 30/42/2
f 27/39/2 26/38/2 25/37/2
f 13/33/2 43/55/2 42/54/2
f 28/40/2 27/39/2 29/41/2
f 43/55/2 16/36/2 2/30/2
f 9/73/3 1/57/4 2/58/5
f 9/73/3 2/58/5 6/66/6
f 9/73/3 6/66/6 5/65/7
f 9/73/3 5/65/7 1/57/4
f 10/74/8 2/59/9 3/60/10
f 10/74/8 3/60/10 7/68/11
f 10/74/8 7/68/11 6/67/12
f 10/74/8 6/67/12 2/59/9
f 11/75/13 3/61/14 4/62/15
f 11/75/13 4/62/15 8/70/16
f 11/75/13 8/70/16 7/69/17
f 11/75/13 7/69/17 3/61/14
f 12/76/18 4/63/19 1/64/20
f 12/76/18 1/64/20 5/72/21
f 12/76/18 5/72/21 8/71/22
f 12/76/18 8/71/22 4/63/19
f 21/93/23 13/77/24 14/78/25
f 21/93/23 14/78/25 18/86/26
f 21/93/23 18/86/26 17/85/27
f 21/93/23 17/85/27 13/77/24
f 22/94/28 14/79/29 15/80/30
f 22/94/28 15/80/30 19/88/31
f 22/94/28 19/88/31 18/87/32
f 22/94/28 18/87/32 14/79/29
f 23/95/33 15/81/34 16/82/35
f 23/95/33 16/82/35 20/90/36
f 23/95/33 20/90/36 19/89/37
f 23/95/33 19/89/37 15/81/34
f 24/96/38 16/83/39 13/84/40
f 24/96/38 13/84/40 17/92/41
f 24/96/38 17/92/41 20/91/42
f 24/96/38 20/91/42 16/83/39
f 65/177/43 25/97/44 26/98/45
f 65/177/43 26/98/45 46/138/46
f 65/177/43 46/138/46 45/137/47
f 65/177/43 45/137/47 25/97/44
f 66/178/48 26/99/49 27/100/50
f 66/178/48 27/100/50 47/140/51
f 66/178/48 47/140/51 46/139/52
f 66/178/48 46/139/52 26/99/49
f 67/179/53 27/101/54 28/102/55
f 67/179/53 28/102/55 48/142/56
f 67/179/53 48/142/56 47/141/57
f 67/179/53 47/141/57 27/101/54
f 68/180/58 28/103/59 29/104/60
f 68/180/58 29/104/60 49/144/61
f 68/180/58 49/144/61 48/143/62
f 68/180/58 48/143/62 28/103/59
f 69/181/63 29/105/64 30/106/65
f 69/181/63 30/106/65 50/146/66
f 69/181/63 50/146/66 49/145/67
f 69/181/63 49/145/67 29/105/64
f 70/182/68 30/107/69 31/108/70
f 70/182/68 31/108/70 51/148/71
f 70/182/68 51/148/71 50/147/72
f 70/182/68 50/147/72 30/107/69
f 71/183/73 31/109/74 32/110/75
f 71/183/73 32/110/75 52/150/76
f 71/183/73 52/150/76 51/149/77
f 71/183/73 51/149/77 31/109/74
f 72/184/78 32/111/79 33/112/80
f 72/184/78 33/112/80 53/152/81
f 72/184/78 53/152/81 52/151/82
f 72/184/78 52/151/82 32/111/79
f 73/185/83 33/113/84 34/114/85
f 73/185/83 34/114/85 54/154/86
f 73/185/83 54/154/86 53/153/87
f 73/185/83 53/153/87 33/113/84
f 74/186/88 34/115/89 35/116/90
f 74/186/88 35/116/90 55/156/91
f 74/186/88 55/156/91 54/155/92
f 74/186/88 54/155/92 34/115/89
f 75/187/93 35/117/94 36/118/95
f 75/187/93 36/118/95 56/158/96
f 75/187/93 56/158/96 55/157/97
f 75/187/93 55/157/97 35/117/94
f 76/188/98 36/119/99 37/120/100
f 76/188/98 37/120/100 57/160/101
f 76/188/98 57/160/101 56/159/102
f 76/188/98 56/159/102 36/119/99
f 77/189/103 37/121/104 38/122/105
f 77/189/103 38/122/105 58/162/106
f 77/189/103 58/162/106 57/161/107
f 77/189/103 57/161/107 37/121/104
f 78/190/108 38/123/109 39/124/110
f 78/190/108 39/124/110 59/164/111
f 78/190/108 59/164/111 58/163/112
f 78/190/108 58/163/112 38/123/109
f 79/191/113 39/125/114 40/126/115
f 79/191/113 40/126/115 60/166/116
f 79/191/113 60/166/116 59/165/117
f 79/191/113 59/165/117 39/125/114
f 80/192/118 40/127/119 41/128/120
f 80/192/118 41/128/120 61/168/121
f 80/192/118 61/168/121 60/167/122
f 80/192/118 60/167/122 40/127/119
f 81/193/123 41/129/124 42/130/125
f 81/193/123 42/130/125 62/170/126
f 81/193/123 62/170/126 61/169/127
f 81/193/123 61/169/127 41/129/124
f 82/194/128 42/131/129 43/132/130
f 82/194/128 43/132/130 63/172/131
f 82/194/128 63/172/131 62/171/132
f 82/194/128 62/171/132 42/131/129
f 83/195/133 43/133/134 44/134/135
f 83/195/133 44/134/135 64/174/136
f 83/195/133 64/174/136 63/173/137
f 83/195/133 63/173/137 43/133/134
f 84/196/138 44/135/139 25/136/140
f 84/196/138 25/136/140 45/176/141
f 84/196/138 45/176/141 64/175/142
f 84/196/138 64/175/142 44/135/139
