mtllib Asset 91.mtl
# Vertex Positions: 
g groupNumber_0
v 0.461925 -0.889636 -0.1765
v 0.461925 -0.821208 -0.1765
v -0.393497 -0.821208 -0.1765
v -0.393497 0.889636 -0.1765
v -0.461925 0.889636 -0.1765
v -0.461925 -0.889636 -0.1765
v 0.461925 -0.889636 0.1765
v 0.461925 -0.821208 0.1765
v -0.393497 -0.821208 0.1765
v -0.393497 0.889636 0.1765
v -0.461925 0.889636 0.1765
v -0.461925 -0.889636 0.1765
v 0.461925 -0.855422 0
v 0.0342141 -0.821208 0
v -0.393497 0.0342141 0
v -0.427711 0.889636 0
v -0.461925 0 0
v 0 -0.889636 0


# Vertex Texture Coordinates :
vt 0.25804 0
vt 0.25804 0.0191126
vt 0.0191126 0.0191126
vt 0.0191126 0.496967
vt 0 0.496967
vt 0 0
vt 0 0.503033
vt 0 0.522146
vt 0.238927 0.522146
vt 0.238927 1
vt 0.25804 1
vt 0.25804 0.503033
vt 0.264149 2.24987e-05
vt 0.283262 2.24987e-05
vt 0.289403 2.24987e-05
vt 0.528331 2.24987e-05
vt 0.289389 0.10473
vt 0.767243 0.10473
vt 0.264149 0.10473
vt 0.283262 0.10473
vt 0.289357 0.209438
vt 0.786324 0.209438
vt 0.534458 2.24987e-05
vt 0.792497 2.24987e-05
vt 0.264149 0.0986186
vt 0.283262 0.0986186
vt 0.289403 0.0986186
vt 0.528331 0.0986186
vt 0.289389 0.203326
vt 0.767243 0.203326
vt 0.264149 0.203326
vt 0.283262 0.203326
vt 0.289357 0.308034
vt 0.786324 0.308034
vt 0.534458 0.0986186
vt 0.792497 0.0986186
vt 0.273706 0.0493206
vt 0.408867 0.0493206
vt 0.528316 0.154028
vt 0.273706 0.154028
vt 0.537841 0.258736
vt 0.663478 0.0493206


# Vertex Surface Normals: 
vn 0 0 1
vn 0 0 -1
vn 1 0 0
vn 1 0 0
vn 1 0 0
vn 1 0 0
vn 1 0 0
vn 0 1 0
vn 0 1 0
vn 0 1 0
vn 0 1 0
vn 0 1 0
vn 1 0 0
vn 1 0 0
vn 1 0 0
vn 1 0 0
vn 1 0 0
vn 0 1 0
vn 0 1 0
vn 0 1 0
vn 0 1 0
vn 0 1 0
vn -1 0 0
vn -1 0 0
vn -1 0 0
vn -1 0 0
vn -1 0 0
vn 0 -1 0
vn 0 -1 0
vn 0 -1 0
vn 0 -1 0
vn 0 -1 0


# Faces: 
usemtl material0
f 12/6/1 9/3/1 11/5/1
f 9/3/1 12/6/1 7/1/1
f 11/5/1 9/3/1 10/4/1
f 8/2/1 9/3/1 7/1/1
f 3/9/2 6/12/2 5/11/2
f 6/12/2 3/9/2 1/7/2
f 3/9/2 5/11/2 4/10/2
f 3/9/2 2/8/2 1/7/2
f 13/37/3 1/13/4 2/14/5
f 13/37/3 2/14/5 8/26/6
f 13/37/3 8/26/6 7/25/7
f 13/37/3 7/25/7 1/13/4
f 14/38/8 2/15/9 3/16/10
f 14/38/8 3/16/10 9/28/11
f 14/38/8 9/28/11 8/27/12
f 14/38/8 8/27/12 2/15/9
f 15/39/13 3/17/14 4/18/15
f 15/39/13 4/18/15 10/30/16
f 15/39/13 10/30/16 9/29/17
f 15/39/13 9/29/17 3/17/14
f 16/40/18 4/19/19 5/20/20
f 16/40/18 5/20/20 11/32/21
f 16/40/18 11/32/21 10/31/22
f 16/40/18 10/31/22 4/19/19
f 17/41/23 5/21/24 6/22/25
f 17/41/23 6/22/25 12/34/26
f 17/41/23 12/34/26 11/33/27
f 17/41/23 11/33/27 5/21/24
f 18/42/28 6/23/29 1/24/30
f 18/42/28 1/24/30 7/36/31
f 18/42/28 7/36/31 12/35/32
f 18/42/28 12/35/32 6/23/29
