mtllib Asset 95.mtl
# Vertex Positions: 
g groupNumber_0
v 0.461925 0.821208 -0.1765
v 0.461925 0.889636 -0.1765
v -0.461925 0.889636 -0.1765
v -0.461925 0.821208 -0.1765
v -0.0342227 0.821208 -0.1765
v -0.0342227 -0.821208 -0.1765
v -0.461925 -0.821208 -0.1765
v -0.461925 -0.889636 -0.1765
v 0.461925 -0.889636 -0.1765
v 0.461925 -0.821208 -0.1765
v 0.0342227 -0.821208 -0.1765
v 0.0342227 0.821208 -0.1765
v 0.461925 0.821208 0.1765
v 0.461925 0.889636 0.1765
v -0.461925 0.889636 0.1765
v -0.461925 0.821208 0.1765
v -0.0342227 0.821208 0.1765
v -0.0342227 -0.821208 0.1765
v -0.461925 -0.821208 0.1765
v -0.461925 -0.889636 0.1765
v 0.461925 -0.889636 0.1765
v 0.461925 -0.821208 0.1765
v 0.0342227 -0.821208 0.1765
v 0.0342227 0.821208 0.1765
v 0.461925 0.855422 0
v 0 0.889636 0
v -0.461925 0.855422 0
v -0.248074 0.821208 0
v -0.0342227 0 0
v -0.248074 -0.821208 0
v -0.461925 -0.855422 0
v 0 -0.889636 0
v 0.461925 -0.855422 0
v 0.248074 -0.821208 0
v 0.0342227 0 0
v 0.248074 0.821208 0


# Vertex Texture Coordinates :
vt 0.261438 0.484148
vt 0.261438 0.503512
vt 0 0.503512
vt 0 0.484148
vt 0.121035 0.484148
vt 0.121035 0.0193644
vt 0 0.0193644
vt 0 0
vt 0.261438 0
vt 0.261438 0.0193644
vt 0.140404 0.0193644
vt 0.140404 0.484148
vt 0.267614 0.484148
vt 0.267614 0.503512
vt 0.529052 0.503512
vt 0.529052 0.484148
vt 0.408018 0.484148
vt 0.408018 0.0193644
vt 0.529052 0.0193644
vt 0.529052 0
vt 0.267614 0
vt 0.267614 0.0193644
vt 0.388648 0.0193644
vt 0.388648 0.484148
vt 1.45592e-05 0.509682
vt 0.0193789 0.509682
vt 0.267614 0.509682
vt 0.529052 0.509682
vt 1.45592e-05 0.615768
vt 0.0193789 0.615768
vt 0.267624 0.615768
vt 0.388659 0.615768
vt 0.535216 2.2795e-05
vt 1 2.2795e-05
vt 0.394854 0.615768
vt 0.515889 0.615768
vt 1.45592e-05 0.721855
vt 0.0193789 0.721855
vt 0.267614 0.721855
vt 0.529052 0.721855
vt 1.45592e-05 0.827942
vt 0.0193789 0.827942
vt 0.267624 0.827942
vt 0.388659 0.827942
vt 0.535216 0.10611
vt 1 0.10611
vt 0.394854 0.827942
vt 0.515889 0.827942
vt 1.45592e-05 0.609576
vt 0.0193789 0.609576
vt 0.267614 0.609576
vt 0.529052 0.609576
vt 1.45592e-05 0.715663
vt 0.0193789 0.715663
vt 0.267624 0.715663
vt 0.388659 0.715663
vt 0.535216 0.0999175
vt 1 0.0999175
vt 0.394854 0.715663
vt 0.515889 0.715663
vt 1.45592e-05 0.82175
vt 0.0193789 0.82175
vt 0.267614 0.82175
vt 0.529052 0.82175
vt 1.45592e-05 0.927836
vt 0.0193789 0.927836
vt 0.267624 0.927836
vt 0.388659 0.927836
vt 0.535216 0.206004
vt 1 0.206004
vt 0.394854 0.927836
vt 0.515889 0.927836
vt 0.00969674 0.559629
vt 0.398333 0.559629
vt 0.00969674 0.665716
vt 0.328141 0.665716
vt 0.767608 0.0499702
vt 0.455372 0.665716
vt 0.00969674 0.771802
vt 0.398333 0.771802
vt 0.00969674 0.877889
vt 0.328141 0.877889
vt 0.767608 0.156057
vt 0.455372 0.877889


# Vertex Surface Normals: 
vn 0 0 1
vn 0 0 -1
vn 1 0 0
vn 1 0 0
vn 1 0 0
vn 1 0 0
vn 1 0 0
vn 0 1 0
vn 0 1 0
vn 0 1 0
vn 0 1 0
vn 0 1 0
vn -1 0 0
vn -1 0 0
vn -1 0 0
vn -1 0 0
vn -1 0 0
vn 0 -1 0
vn 0 -1 0
vn 0 -1 0
vn 0 -1 0
vn 0 -1 0
vn -1 0 0
vn -1 0 0
vn -1 0 0
vn -1 0 0
vn -1 0 0
vn 0 1 0
vn 0 1 0
vn 0 1 0
vn 0 1 0
vn 0 1 0
vn -1 0 0
vn -1 0 0
vn -1 0 0
vn -1 0 0
vn -1 0 0
vn 0 -1 0
vn 0 -1 0
vn 0 -1 0
vn 0 -1 0
vn 0 -1 0
vn 1 0 0
vn 1 0 0
vn 1 0 0
vn 1 0 0
vn 1 0 0
vn 0 1 0
vn 0 1 0
vn 0 1 0
vn 0 1 0
vn 0 1 0
vn 1 0 0
vn 1 0 0
vn 1 0 0
vn 1 0 0
vn 1 0 0
vn 0 -1 0
vn 0 -1 0
vn 0 -1 0
vn 0 -1 0
vn 0 -1 0


# Faces: 
usemtl material0
f 20/8/1 18/6/1 19/7/1
f 18/6/1 20/8/1 21/9/1
f 16/4/1 17/5/1 15/3/1
f 15/3/1 17/5/1 24/12/1
f 18/6/1 23/11/1 17/5/1
f 23/11/1 21/9/1 22/10/1
f 21/9/1 23/11/1 18/6/1
f 24/12/1 13/1/1 14/2/1
f 24/12/1 14/2/1 15/3/1
f 23/11/1 24/12/1 17/5/1
f 6/18/2 8/20/2 7/19/2
f 8/20/2 6/18/2 9/21/2
f 5/17/2 4/16/2 3/15/2
f 5/17/2 3/15/2 12/24/2
f 11/23/2 6/18/2 5/17/2
f 9/21/2 11/23/2 10/22/2
f 11/23/2 9/21/2 6/18/2
f 1/13/2 12/24/2 2/14/2
f 2/14/2 12/24/2 3/15/2
f 12/24/2 11/23/2 5/17/2
f 25/73/3 1/25/4 2/26/5
f 25/73/3 2/26/5 14/50/6
f 25/73/3 14/50/6 13/49/7
f 25/73/3 13/49/7 1/25/4
f 26/74/8 2/27/9 3/28/10
f 26/74/8 3/28/10 15/52/11
f 26/74/8 15/52/11 14/51/12
f 26/74/8 14/51/12 2/27/9
f 27/75/13 3/29/14 4/30/15
f 27/75/13 4/30/15 16/54/16
f 27/75/13 16/54/16 15/53/17
f 27/75/13 15/53/17 3/29/14
f 28/76/18 4/31/19 5/32/20
f 28/76/18 5/32/20 17/56/21
f 28/76/18 17/56/21 16/55/22
f 28/76/18 16/55/22 4/31/19
f 29/77/23 5/33/24 6/34/25
f 29/77/23 6/34/25 18/58/26
f 29/77/23 18/58/26 17/57/27
f 29/77/23 17/57/27 5/33/24
f 30/78/28 6/35/29 7/36/30
f 30/78/28 7/36/30 19/60/31
f 30/78/28 19/60/31 18/59/32
f 30/78/28 18/59/32 6/35/29
f 31/79/33 7/37/34 8/38/35
f 31/79/33 8/38/35 20/62/36
f 31/79/33 20/62/36 19/61/37
f 31/79/33 19/61/37 7/37/34
f 32/80/38 8/39/39 9/40/40
f 32/80/38 9/40/40 21/64/41
f 32/80/38 21/64/41 20/63/42
f 32/80/38 20/63/42 8/39/39
f 33/81/43 9/41/44 10/42/45
f 33/81/43 10/42/45 22/66/46
f 33/81/43 22/66/46 21/65/47
f 33/81/43 21/65/47 9/41/44
f 34/82/48 10/43/49 11/44/50
f 34/82/48 11/44/50 23/68/51
f 34/82/48 23/68/51 22/67/52
f 34/82/48 22/67/52 10/43/49
f 35/83/53 11/45/54 12/46/55
f 35/83/53 12/46/55 24/70/56
f 35/83/53 24/70/56 23/69/57
f 35/83/53 23/69/57 11/45/54
f 36/84/58 12/47/59 1/48/60
f 36/84/58 1/48/60 13/72/61
f 36/84/58 13/72/61 24/71/62
f 36/84/58 24/71/62 12/47/59
