mtllib Asset 61.mtl
# Vertex Positions: 
g groupNumber_0
v -0.406579 -0.889636 -0.1765
v 0.483074 0.889636 -0.1765
v 0.406562 0.889636 -0.1765
v -0.483074 -0.889636 -0.1765
v -0.406579 -0.889636 0.1765
v 0.483074 0.889636 0.1765
v 0.406562 0.889636 0.1765
v -0.483074 -0.889636 0.1765
v 0.0382474 0 0
v 0.444818 0.889636 0
v -0.038256 0 0
v -0.444827 -0.889636 0


# Vertex Texture Coordinates :
vt 0.0213487 1.86506e-05
vt 0.26964 0.496591
vt 0.248286 0.496591
vt 0 1.86506e-05
vt 0.248291 0.503428
vt 0 1
vt 0.0213535 1
vt 0.26964 0.503428
vt 0.276463 0
vt 0.83165 0
vt 0.838458 0
vt 0.859812 0
vt 0.276464 0.105317
vt 0.831649 0.105317
vt 0.866654 0
vt 0.888002 0
vt 0.276463 0.0985178
vt 0.83165 0.0985178
vt 0.838458 0.0985178
vt 0.859812 0.0985178
vt 0.276464 0.203835
vt 0.831649 0.203835
vt 0.866654 0.0985178
vt 0.888002 0.0985178
vt 0.554056 0.0492589
vt 0.849135 0.0492589
vt 0.554056 0.154576
vt 0.877328 0.0492589


# Vertex Surface Normals: 
vn 0 0 1
vn 0 0 -1
vn 0.894424 -0.447221 0
vn 0.894424 -0.447221 0
vn 0.894424 -0.447221 0
vn 0.894424 -0.447221 0
vn 0.894424 -0.447221 0
vn 0 1 0
vn 0 1 0
vn 0 1 0
vn 0 1 0
vn 0 1 0
vn -0.894427 0.447214 0
vn -0.894427 0.447214 0
vn -0.894427 0.447214 0
vn -0.894427 0.447214 0
vn -0.894427 0.447214 0
vn 0 -1 0
vn 0 -1 0
vn 0 -1 0
vn 0 -1 0
vn 0 -1 0


# Faces: 
usemtl material0
f 8/4/1 5/1/1 7/3/1
f 6/2/1 7/3/1 5/1/1
f 1/5/2 4/8/2 3/7/2
f 3/7/2 2/6/2 1/5/2
f 9/25/3 1/9/4 2/10/5
f 9/25/3 2/10/5 6/18/6
f 9/25/3 6/18/6 5/17/7
f 9/25/3 5/17/7 1/9/4
f 10/26/8 2/11/9 3/12/10
f 10/26/8 3/12/10 7/20/11
f 10/26/8 7/20/11 6/19/12
f 10/26/8 6/19/12 2/11/9
f 11/27/13 3/13/14 4/14/15
f 11/27/13 4/14/15 8/22/16
f 11/27/13 8/22/16 7/21/17
f 11/27/13 7/21/17 3/13/14
f 12/28/18 4/15/19 1/16/20
f 12/28/18 1/16/20 5/24/21
f 12/28/18 5/24/21 8/23/22
f 12/28/18 8/23/22 4/15/19
