mtllib Asset 53.mtl
# Vertex Positions: 
g groupNumber_0
v 0.169157 -0.889386 -0.1765
v 0.169157 0.889386 -0.1765
v -0.169157 0.889386 -0.1765
v -0.169157 0.820958 -0.1765
v 0.100729 0.820958 -0.1765
v 0.100729 -0.82094 -0.1765
v -0.169157 -0.82094 -0.1765
v -0.169157 -0.889386 -0.1765
v 0.169157 -0.889386 0.1765
v 0.169157 0.889386 0.1765
v -0.169157 0.889386 0.1765
v -0.169157 0.820958 0.1765
v 0.100729 0.820958 0.1765
v 0.100729 -0.82094 0.1765
v -0.169157 -0.82094 0.1765
v -0.169157 -0.889386 0.1765
v 0.169157 0 0
v 0 0.889386 0
v -0.169157 0.855172 0
v -0.0342141 0.820958 0
v 0.100729 8.6181e-06 0
v -0.0342141 -0.82094 0
v -0.169157 -0.855163 0
v 0 -0.889386 0


# Vertex Texture Coordinates :
vt 0.133857 0
vt 0.133857 0.703547
vt 4.54465e-05 0.703547
vt 4.54465e-05 0.676482
vt 0.106792 0.676482
vt 0.106792 0.0270718
vt 4.54465e-05 0.0270718
vt 4.54465e-05 0
vt 0.14261 0
vt 0.14261 0.703547
vt 0.276421 0.703547
vt 0.276421 0.676482
vt 0.169675 0.676482
vt 0.169675 0.0270718
vt 0.276421 0.0270718
vt 0.276421 0
vt 0.285092 1.22392e-05
vt 0.988639 1.22392e-05
vt 4.54465e-05 0.712147
vt 0.133857 0.712147
vt 0 0.86038
vt 0.027065 0.86038
vt 0.142573 0.712147
vt 0.24932 0.712147
vt 0.285108 0.148245
vt 0.934518 0.148245
vt 0.142573 0.86038
vt 0.24932 0.86038
vt 0.943155 0.148245
vt 0.970227 0.148245
vt 0.285174 0.296478
vt 0.418986 0.296478
vt 0.285092 0.139632
vt 0.988639 0.139632
vt 4.54465e-05 0.851767
vt 0.133857 0.851767
vt 0 1
vt 0.027065 1
vt 0.142573 0.851767
vt 0.24932 0.851767
vt 0.285108 0.287865
vt 0.934518 0.287865
vt 0.142573 1
vt 0.24932 1
vt 0.943155 0.287865
vt 0.970227 0.287865
vt 0.285174 0.436098
vt 0.418986 0.436098
vt 0.636865 0.0698222
vt 0.0669512 0.781957
vt 0.0135325 0.93019
vt 0.195946 0.781957
vt 0.609813 0.218055
vt 0.195946 0.93019
vt 0.956691 0.218055
vt 0.35208 0.366288


# Vertex Surface Normals: 
vn 0 0 1
vn 0 0 -1
vn 1 0 0
vn 1 0 0
vn 1 0 0
vn 1 0 0
vn 1 0 0
vn 0 1 0
vn 0 1 0
vn 0 1 0
vn 0 1 0
vn 0 1 0
vn -1 0 0
vn -1 0 0
vn -1 0 0
vn -1 0 0
vn -1 0 0
vn 0 -1 0
vn 0 -1 0
vn 0 -1 0
vn 0 -1 0
vn 0 -1 0
vn -1 0 0
vn -1 0 0
vn -1 0 0
vn -1 0 0
vn -1 0 0
vn 0 1 0
vn 0 1 0
vn 0 1 0
vn 0 1 0
vn 0 1 0
vn -1 0 0
vn -1 0 0
vn -1 0 0
vn -1 0 0
vn -1 0 0
vn 0 -1 0
vn 0 -1 0
vn 0 -1 0
vn 0 -1 0
vn 0 -1 0


# Faces: 
usemtl material0
f 15/7/1 16/8/1 14/6/1
f 11/3/1 12/4/1 13/5/1
f 14/6/1 9/1/1 10/2/1
f 9/1/1 14/6/1 16/8/1
f 13/5/1 10/2/1 11/3/1
f 10/2/1 13/5/1 14/6/1
f 8/16/2 7/15/2 6/14/2
f 4/12/2 3/11/2 5/13/2
f 1/9/2 6/14/2 2/10/2
f 6/14/2 1/9/2 8/16/2
f 2/10/2 5/13/2 3/11/2
f 5/13/2 2/10/2 6/14/2
f 17/49/3 1/17/4 2/18/5
f 17/49/3 2/18/5 10/34/6
f 17/49/3 10/34/6 9/33/7
f 17/49/3 9/33/7 1/17/4
f 18/50/8 2/19/9 3/20/10
f 18/50/8 3/20/10 11/36/11
f 18/50/8 11/36/11 10/35/12
f 18/50/8 10/35/12 2/19/9
f 19/51/13 3/21/14 4/22/15
f 19/51/13 4/22/15 12/38/16
f 19/51/13 12/38/16 11/37/17
f 19/51/13 11/37/17 3/21/14
f 20/52/18 4/23/19 5/24/20
f 20/52/18 5/24/20 13/40/21
f 20/52/18 13/40/21 12/39/22
f 20/52/18 12/39/22 4/23/19
f 21/53/23 5/25/24 6/26/25
f 21/53/23 6/26/25 14/42/26
f 21/53/23 14/42/26 13/41/27
f 21/53/23 13/41/27 5/25/24
f 22/54/28 6/27/29 7/28/30
f 22/54/28 7/28/30 15/44/31
f 22/54/28 15/44/31 14/43/32
f 22/54/28 14/43/32 6/27/29
f 23/55/33 7/29/34 8/30/35
f 23/55/33 8/30/35 16/46/36
f 23/55/33 16/46/36 15/45/37
f 23/55/33 15/45/37 7/29/34
f 24/56/38 8/31/39 1/32/40
f 24/56/38 1/32/40 9/48/41
f 24/56/38 9/48/41 16/47/42
f 24/56/38 16/47/42 8/31/39
