mtllib Asset 74.mtl
# Vertex Positions: 
g groupNumber_0
v 0.467768 -0.889636 -0.1765
v 0.467768 -0.821208 -0.1765
v 0.0400658 -0.821208 -0.1765
v 0.0400658 0.889636 -0.1765
v -0.0152972 0.889636 -0.1765
v -0.467768 -0.0153059 -0.1765
v -0.406562 -0.0459003 -0.1765
v -0.0283796 0.710481 -0.1765
v -0.0283796 -0.821208 -0.1765
v -0.456082 -0.821208 -0.1765
v -0.456082 -0.889636 -0.1765
v 0.467768 -0.889636 0.1765
v 0.467768 -0.821208 0.1765
v 0.0400658 -0.821208 0.1765
v 0.0400658 0.889636 0.1765
v -0.0152972 0.889636 0.1765
v -0.467768 -0.0153059 0.1765
v -0.406562 -0.0459003 0.1765
v -0.0283796 0.710481 0.1765
v -0.0283796 -0.821208 0.1765
v -0.456082 -0.821208 0.1765
v -0.456082 -0.889636 0.1765
v 0.467768 -0.855422 0
v 0.253917 -0.821208 0
v 0.0400658 0.0342141 0
v 0.0123843 0.889636 0
v -0.241533 0.437165 0
v -0.437165 -0.0306031 0
v -0.217471 0.332291 0
v -0.0283796 -0.0553631 0
v -0.242231 -0.821208 0
v -0.456082 -0.855422 0
v 0.00584312 -0.889636 0


# Vertex Texture Coordinates :
vt 0.261304 0
vt 0.261304 0.0191126
vt 0.141843 0.0191126
vt 0.141843 0.496967
vt 0.126379 0.496967
vt 0 0.244208
vt 0.0170954 0.235663
vt 0.122725 0.446927
vt 0.122725 0.0191126
vt 0.00326407 0.0191126
vt 0.00326407 0
vt 0 0.503033
vt 0 0.522146
vt 0.119461 0.522146
vt 0.119461 1
vt 0.134925 1
vt 0.261304 0.747242
vt 0.244208 0.738696
vt 0.138579 0.949961
vt 0.138579 0.522146
vt 0.25804 0.522146
vt 0.25804 0.503033
vt 0.267419 2.24987e-05
vt 0.286532 2.24987e-05
vt 0.292651 2.24987e-05
vt 0.412113 2.24987e-05
vt 0.418235 2.24987e-05
vt 0.89609 2.24987e-05
vt 0.902221 2.24987e-05
vt 0.917685 2.24987e-05
vt 0.29268 0.10473
vt 0.575273 0.10473
vt 0.923814 2.24987e-05
vt 0.942926 2.24987e-05
vt 0.581407 0.10473
vt 0.817606 0.10473
vt 0.292685 0.209438
vt 0.7205 0.209438
vt 0.823712 0.10473
vt 0.943173 0.10473
vt 0.949293 0.10473
vt 0.968405 0.10473
vt 0.726638 0.209438
vt 0.984678 0.209438
vt 0.267419 0.0986186
vt 0.286532 0.0986186
vt 0.292651 0.0986186
vt 0.412113 0.0986186
vt 0.418235 0.0986186
vt 0.89609 0.0986186
vt 0.902221 0.0986186
vt 0.917685 0.0986186
vt 0.29268 0.203326
vt 0.575273 0.203326
vt 0.923814 0.0986186
vt 0.942926 0.0986186
vt 0.581407 0.203326
vt 0.817606 0.203326
vt 0.292685 0.308034
vt 0.7205 0.308034
vt 0.823712 0.203326
vt 0.943173 0.203326
vt 0.949293 0.203326
vt 0.968405 0.203326
vt 0.726638 0.308034
vt 0.984678 0.308034
vt 0.276976 0.0493206
vt 0.352382 0.0493206
vt 0.657162 0.0493206
vt 0.909953 0.0493206
vt 0.433976 0.154028
vt 0.93337 0.0493206
vt 0.699507 0.154028
vt 0.506592 0.258736
vt 0.883442 0.154028
vt 0.958849 0.154028
vt 0.855658 0.258736


# Vertex Surface Normals: 
vn 0 0 1
vn 0 0 -1
vn 1 0 0
vn 1 0 0
vn 1 0 0
vn 1 0 0
vn 1 0 0
vn 0 1 0
vn 0 1 0
vn 0 1 0
vn 0 1 0
vn 0 1 0
vn 1 0 0
vn 1 0 0
vn 1 0 0
vn 1 0 0
vn 1 0 0
vn 0 1 0
vn 0 1 0
vn 0 1 0
vn 0 1 0
vn 0 1 0
vn -0.894427 0.447214 0
vn -0.894427 0.447214 -2.20377e-17
vn -0.894427 0.447214 -2.20377e-17
vn -0.894427 0.447214 2.20377e-17
vn -0.894427 0.447214 2.20377e-17
vn -0.447113 -0.894478 0
vn -0.447113 -0.894478 7.32199e-17
vn -0.447113 -0.894478 7.32199e-17
vn -0.447113 -0.894478 -7.32199e-17
vn -0.447113 -0.894478 -7.32199e-17
vn 0.894431 -0.447205 0
vn 0.894431 -0.447205 4.65883e-17
vn 0.894431 -0.447205 4.65883e-17
vn 0.894431 -0.447205 -4.65883e-17
vn 0.894431 -0.447205 -4.65883e-17
vn -1 0 0
vn -1 0 0
vn -1 0 0
vn -1 0 0
vn -1 0 0
vn 0 1 0
vn 0 1 0
vn 0 1 0
vn 0 1 0
vn 0 1 0
vn -1 0 0
vn -1 0 0
vn -1 0 0
vn -1 0 0
vn -1 0 0
vn 0 -1 0
vn 0 -1 0
vn 0 -1 0
vn 0 -1 0
vn 0 -1 0


# Faces: 
usemtl material0
f 21/10/1 22/11/1 20/9/1
f 20/9/1 14/3/1 19/8/1
f 17/6/1 18/7/1 19/8/1
f 22/11/1 12/1/1 20/9/1
f 14/3/1 12/1/1 13/2/1
f 12/1/1 14/3/1 20/9/1
f 19/8/1 15/4/1 16/5/1
f 19/8/1 14/3/1 15/4/1
f 19/8/1 16/5/1 17/6/1
f 11/22/2 10/21/2 9/20/2
f 3/14/2 9/20/2 8/19/2
f 7/18/2 6/17/2 8/19/2
f 1/12/2 11/22/2 9/20/2
f 1/12/2 3/14/2 2/13/2
f 3/14/2 1/12/2 9/20/2
f 4/15/2 8/19/2 5/16/2
f 3/14/2 8/19/2 4/15/2
f 5/16/2 8/19/2 6/17/2
f 23/67/3 1/23/4 2/24/5
f 23/67/3 2/24/5 13/46/6
f 23/67/3 13/46/6 12/45/7
f 23/67/3 12/45/7 1/23/4
f 24/68/8 2/25/9 3/26/10
f 24/68/8 3/26/10 14/48/11
f 24/68/8 14/48/11 13/47/12
f 24/68/8 13/47/12 2/25/9
f 25/69/13 3/27/14 4/28/15
f 25/69/13 4/28/15 15/50/16
f 25/69/13 15/50/16 14/49/17
f 25/69/13 14/49/17 3/27/14
f 26/70/18 4/29/19 5/30/20
f 26/70/18 5/30/20 16/52/21
f 26/70/18 16/52/21 15/51/22
f 26/70/18 15/51/22 4/29/19
f 27/71/23 5/31/24 6/32/25
f 27/71/23 6/32/25 17/54/26
f 27/71/23 17/54/26 16/53/27
f 27/71/23 16/53/27 5/31/24
f 28/72/28 6/33/29 7/34/30
f 28/72/28 7/34/30 18/56/31
f 28/72/28 18/56/31 17/55/32
f 28/72/28 17/55/32 6/33/29
f 29/73/33 7/35/34 8/36/35
f 29/73/33 8/36/35 19/58/36
f 29/73/33 19/58/36 18/57/37
f 29/73/33 18/57/37 7/35/34
f 30/74/38 8/37/39 9/38/40
f 30/74/38 9/38/40 20/60/41
f 30/74/38 20/60/41 19/59/42
f 30/74/38 19/59/42 8/37/39
f 31/75/43 9/39/44 10/40/45
f 31/75/43 10/40/45 21/62/46
f 31/75/43 21/62/46 20/61/47
f 31/75/43 20/61/47 9/39/44
f 32/76/48 10/41/49 11/42/50
f 32/76/48 11/42/50 22/64/51
f 32/76/48 22/64/51 21/63/52
f 32/76/48 21/63/52 10/41/49
f 33/77/53 11/43/54 1/44/55
f 33/77/53 1/44/55 12/66/56
f 33/77/53 12/66/56 22/65/57
f 33/77/53 22/65/57 11/43/54
