mtllib Asset 93.mtl
# Vertex Positions: 
g groupNumber_0
v 0.461925 -0.889636 -0.1765
v 0.461925 0.889636 -0.1765
v -0.461925 0.889636 -0.1765
v -0.461925 0.821208 -0.1765
v 0.393497 0.821208 -0.1765
v 0.393497 -0.821208 -0.1765
v -0.461925 -0.821208 -0.1765
v -0.461925 -0.889636 -0.1765
v 0.461925 -0.889636 0.1765
v 0.461925 0.889636 0.1765
v -0.461925 0.889636 0.1765
v -0.461925 0.821208 0.1765
v 0.393497 0.821208 0.1765
v 0.393497 -0.821208 0.1765
v -0.461925 -0.821208 0.1765
v -0.461925 -0.889636 0.1765
v 0.461925 0 0
v 0 0.889636 0
v -0.461925 0.855422 0
v -0.0342141 0.821208 0
v 0.393497 0 0
v -0.0342141 -0.821208 0
v -0.461925 -0.855422 0
v 0 -0.889636 0


# Vertex Texture Coordinates :
vt 0.25804 0
vt 0.25804 0.496967
vt 0 0.496967
vt 0 0.477854
vt 0.238927 0.477854
vt 0.238927 0.0191126
vt 0 0.0191126
vt 0 0
vt 0 0.503033
vt 0 1
vt 0.25804 1
vt 0.25804 0.980887
vt 0.0191126 0.980887
vt 0.0191126 0.522146
vt 0.25804 0.522146
vt 0.25804 0.503033
vt 0.264121 2.24987e-05
vt 0.761087 2.24987e-05
vt 0.264135 0.10473
vt 0.522175 0.10473
vt 0.767183 2.24987e-05
vt 0.786295 2.24987e-05
vt 0.528302 0.10473
vt 0.767229 0.10473
vt 0.264124 0.209438
vt 0.722865 0.209438
vt 0.728981 0.209438
vt 0.967908 0.209438
vt 0.97405 0.209438
vt 0.993162 0.209438
vt 0.264135 0.314145
vt 0.522175 0.314145
vt 0.264121 0.0986186
vt 0.761087 0.0986186
vt 0.264135 0.203326
vt 0.522175 0.203326
vt 0.767183 0.0986186
vt 0.786295 0.0986186
vt 0.528302 0.203326
vt 0.767229 0.203326
vt 0.264124 0.308034
vt 0.722865 0.308034
vt 0.728981 0.308034
vt 0.967908 0.308034
vt 0.97405 0.308034
vt 0.993162 0.308034
vt 0.264135 0.412741
vt 0.522175 0.412741
vt 0.512604 0.0493206
vt 0.393155 0.154028
vt 0.776739 0.0493206
vt 0.647765 0.154028
vt 0.493494 0.258736
vt 0.848445 0.258736
vt 0.983606 0.258736
vt 0.393155 0.363443


# Vertex Surface Normals: 
vn 0 0 1
vn 0 0 -1
vn 1 0 0
vn 1 0 0
vn 1 0 0
vn 1 0 0
vn 1 0 0
vn 0 1 0
vn 0 1 0
vn 0 1 0
vn 0 1 0
vn 0 1 0
vn -1 0 0
vn -1 0 0
vn -1 0 0
vn -1 0 0
vn -1 0 0
vn 0 -1 0
vn 0 -1 0
vn 0 -1 0
vn 0 -1 0
vn 0 -1 0
vn -1 0 0
vn -1 0 0
vn -1 0 0
vn -1 0 0
vn -1 0 0
vn 0 1 0
vn 0 1 0
vn 0 1 0
vn 0 1 0
vn 0 1 0
vn -1 0 0
vn -1 0 0
vn -1 0 0
vn -1 0 0
vn -1 0 0
vn 0 -1 0
vn 0 -1 0
vn 0 -1 0
vn 0 -1 0
vn 0 -1 0


# Faces: 
usemtl material0
f 15/7/1 16/8/1 14/6/1
f 11/3/1 12/4/1 13/5/1
f 14/6/1 9/1/1 10/2/1
f 9/1/1 14/6/1 16/8/1
f 13/5/1 10/2/1 11/3/1
f 10/2/1 13/5/1 14/6/1
f 8/16/2 7/15/2 6/14/2
f 4/12/2 3/11/2 5/13/2
f 1/9/2 6/14/2 2/10/2
f 6/14/2 1/9/2 8/16/2
f 2/10/2 5/13/2 3/11/2
f 5/13/2 2/10/2 6/14/2
f 17/49/3 1/17/4 2/18/5
f 17/49/3 2/18/5 10/34/6
f 17/49/3 10/34/6 9/33/7
f 17/49/3 9/33/7 1/17/4
f 18/50/8 2/19/9 3/20/10
f 18/50/8 3/20/10 11/36/11
f 18/50/8 11/36/11 10/35/12
f 18/50/8 10/35/12 2/19/9
f 19/51/13 3/21/14 4/22/15
f 19/51/13 4/22/15 12/38/16
f 19/51/13 12/38/16 11/37/17
f 19/51/13 11/37/17 3/21/14
f 20/52/18 4/23/19 5/24/20
f 20/52/18 5/24/20 13/40/21
f 20/52/18 13/40/21 12/39/22
f 20/52/18 12/39/22 4/23/19
f 21/53/23 5/25/24 6/26/25
f 21/53/23 6/26/25 14/42/26
f 21/53/23 14/42/26 13/41/27
f 21/53/23 13/41/27 5/25/24
f 22/54/28 6/27/29 7/28/30
f 22/54/28 7/28/30 15/44/31
f 22/54/28 15/44/31 14/43/32
f 22/54/28 14/43/32 6/27/29
f 23/55/33 7/29/34 8/30/35
f 23/55/33 8/30/35 16/46/36
f 23/55/33 16/46/36 15/45/37
f 23/55/33 15/45/37 7/29/34
f 24/56/38 8/31/39 1/32/40
f 24/56/38 1/32/40 9/48/41
f 24/56/38 9/48/41 16/47/42
f 24/56/38 16/47/42 8/31/39
