mtllib Asset 85.mtl
# Vertex Positions: 
g groupNumber_0
v 0.369288 0.821208 -0.1765
v 0.369288 0.0342141 -0.1765
v -0.417705 0.0342141 -0.1765
v -0.417705 0.821208 -0.1765
v 0.369288 0.821208 0.1765
v 0.369288 0.0342141 0.1765
v -0.417705 0.0342141 0.1765
v -0.417705 0.821208 0.1765
v 0.369288 0.427711 0
v -0.0242084 0.0342141 0
v -0.417705 0.427711 0
v -0.0242084 0.821208 0
v 0.486133 -0.889636 -0.1765
v -0.369288 -0.0342141 -0.1765
v 0.437717 -0.0342141 -0.1765
v 0.437717 0.889636 -0.1765
v -0.486133 0.889636 -0.1765
v -0.486133 -0.889636 -0.1765
v -0.417705 -0.889636 -0.1765
v -0.417705 -0.082631 -0.1765
v 0.3893 -0.889636 -0.1765
v 0.486133 -0.889636 0.1765
v -0.369288 -0.0342141 0.1765
v 0.437717 -0.0342141 0.1765
v 0.437717 0.889636 0.1765
v -0.486133 0.889636 0.1765
v -0.486133 -0.889636 0.1765
v -0.417705 -0.889636 0.1765
v -0.417705 -0.082631 0.1765
v 0.3893 -0.889636 0.1765
v 0.0584225 -0.461925 0
v 0.0342141 -0.0342141 0
v 0.437717 0.427711 0
v -0.0242084 0.889636 0
v -0.486133 0 0
v -0.451919 -0.889636 0
v -0.417705 -0.486133 0
v -0.0142027 -0.486133 0
v 0.437717 -0.889636 0


# Vertex Texture Coordinates :
vt 0.238927 0.477854
vt 0.238927 0.25804
vt 0.0191126 0.25804
vt 0.0191126 0.477854
vt 0.271563 0
vt 0.0326359 0.238927
vt 0.25804 0.238927
vt 0.25804 0.496967
vt 0 0.496967
vt 0 0
vt 0.0191126 0
vt 0.0191126 0.225404
vt 0.244516 0
vt 0.0326359 0.980887
vt 0.0326359 0.761073
vt 0.25245 0.761073
vt 0.25245 0.980887
vt 0 0.503033
vt 0.238927 0.74196
vt 0.0135233 0.74196
vt 0.0135233 1
vt 0.271563 1
vt 0.271563 0.503033
vt 0.25245 0.503033
vt 0.25245 0.728437
vt 0.0270465 0.503033
vt 0.277694 2.24987e-05
vt 0.497509 2.24987e-05
vt 0.50361 2.24987e-05
vt 0.723425 2.24987e-05
vt 0.729526 2.24987e-05
vt 0.949341 2.24987e-05
vt 0.277694 0.10473
vt 0.497509 0.10473
vt 0.277694 0.0986186
vt 0.497509 0.0986186
vt 0.50361 0.0986186
vt 0.723425 0.0986186
vt 0.729526 0.0986186
vt 0.949341 0.0986186
vt 0.277694 0.203326
vt 0.497509 0.203326
vt 0.387601 0.0493206
vt 0.613517 0.0493206
vt 0.839434 0.0493206
vt 0.387601 0.154028
vt 0.503597 0.10473
vt 0.841491 0.10473
vt 0.27769 0.209438
vt 0.503094 0.209438
vt 0.509188 0.209438
vt 0.767228 0.209438
vt 0.277691 0.314145
vt 0.535731 0.314145
vt 0.277677 0.418853
vt 0.774643 0.418853
vt 0.955454 2.24987e-05
vt 0.974566 2.24987e-05
vt 0.773322 0.209438
vt 0.998726 0.209438
vt 0.541859 0.314145
vt 0.860628 0.314145
vt 0.887675 0.314145
vt 0.503597 0.203326
vt 0.841491 0.203326
vt 0.27769 0.308034
vt 0.503094 0.308034
vt 0.509188 0.308034
vt 0.767228 0.308034
vt 0.277691 0.412741
vt 0.535731 0.412741
vt 0.277677 0.517449
vt 0.774643 0.517449
vt 0.955454 0.0986186
vt 0.974566 0.0986186
vt 0.773322 0.308034
vt 0.998726 0.308034
vt 0.541859 0.412741
vt 0.860628 0.412741
vt 0.887675 0.412741
vt 0.672544 0.154028
vt 0.390392 0.258736
vt 0.638208 0.258736
vt 0.406711 0.363443
vt 0.52616 0.468151
vt 0.96501 0.0493206
vt 0.886024 0.258736
vt 0.701244 0.363443
vt 0.874152 0.363443


# Vertex Surface Normals: 
vn 0 0 1
vn 0 0 -1
vn -1 0 0
vn -1 0 0
vn -1 0 0
vn -1 0 0
vn -1 0 0
vn 0 1 0
vn 0 1 0
vn 0 1 0
vn 0 1 0
vn 0 1 0
vn 1 0 0
vn 1 0 0
vn 1 0 0
vn 1 0 0
vn 1 0 0
vn 0 -1 0
vn 0 -1 0
vn 0 -1 0
vn 0 -1 0
vn 0 -1 0
vn 0.707107 0.707107 0
vn 0.707107 0.707107 0
vn 0.707107 0.707107 0
vn 0.707107 0.707107 0
vn 0.707107 0.707107 0
vn 0 -1 0
vn 0 -1 0
vn 0 -1 0
vn 0 -1 0
vn 0 -1 0
vn 1 0 0
vn 1 0 0
vn 1 0 0
vn 1 0 0
vn 1 0 0
vn 0 1 0
vn 0 1 0
vn 0 1 0
vn 0 1 0
vn 0 1 0
vn -1 0 0
vn -1 0 0
vn -1 0 0
vn -1 0 0
vn -1 0 0
vn 0 -1 0
vn 0 -1 0
vn 0 -1 0
vn 0 -1 0
vn 0 -1 0
vn 1 0 0
vn 1 0 0
vn 1 0 0
vn 1 0 0
vn 1 0 0
vn -0.707107 -0.707107 0
vn -0.707107 -0.707107 0
vn -0.382683 -0.92388 0
vn -0.382683 -0.92388 0
vn -0.707107 -0.707107 0
vn 0 -1 0
vn 0 -1 0
vn 0 -1 0


# Faces: 
usemtl material0
f 27/10/1 28/11/1 29/12/1
f 27/10/1 29/12/1 7/3/1
f 26/9/1 7/3/1 8/4/1
f 7/3/1 26/9/1 27/10/1
f 26/9/1 8/4/1 5/1/1
f 29/12/1 23/6/1 7/3/1
f 23/6/1 30/13/1 22/5/1
f 30/13/1 23/6/1 29/12/1
f 5/1/1 6/2/1 24/7/1
f 24/7/1 25/8/1 5/1/1
f 6/2/1 23/6/1 24/7/1
f 5/1/1 25/8/1 26/9/1
f 6/2/1 7/3/1 23/6/1
f 19/24/2 18/23/2 20/25/2
f 20/25/2 18/23/2 3/16/2
f 3/16/2 17/22/2 4/17/2
f 17/22/2 3/16/2 18/23/2
f 4/17/2 17/22/2 1/14/2
f 14/19/2 20/25/2 3/16/2
f 21/26/2 14/19/2 13/18/2
f 14/19/2 21/26/2 20/25/2
f 2/15/2 1/14/2 15/20/2
f 16/21/2 15/20/2 1/14/2
f 14/19/2 2/15/2 15/20/2
f 16/21/2 1/14/2 17/22/2
f 3/16/2 2/15/2 14/19/2
f 9/43/3 1/27/4 2/28/5
f 9/43/3 2/28/5 6/36/6
f 9/43/3 6/36/6 5/35/7
f 9/43/3 5/35/7 1/27/4
f 10/44/8 2/29/9 3/30/10
f 10/44/8 3/30/10 7/38/11
f 10/44/8 7/38/11 6/37/12
f 10/44/8 6/37/12 2/29/9
f 11/45/13 3/31/14 4/32/15
f 11/45/13 4/32/15 8/40/16
f 11/45/13 8/40/16 7/39/17
f 11/45/13 7/39/17 3/31/14
f 12/46/18 4/33/19 1/34/20
f 12/46/18 1/34/20 5/42/21
f 12/46/18 5/42/21 8/41/22
f 12/46/18 8/41/22 4/33/19
f 31/81/23 13/47/24 14/48/25
f 31/81/23 14/48/25 23/65/26
f 31/81/23 23/65/26 22/64/27
f 31/81/23 22/64/27 13/47/24
f 32/82/28 14/49/29 15/50/30
f 32/82/28 15/50/30 24/67/31
f 32/82/28 24/67/31 23/66/32
f 32/82/28 23/66/32 14/49/29
f 33/83/33 15/51/34 16/52/35
f 33/83/33 16/52/35 25/69/36
f 33/83/33 25/69/36 24/68/37
f 33/83/33 24/68/37 15/51/34
f 34/84/38 16/53/39 17/54/40
f 34/84/38 17/54/40 26/71/41
f 34/84/38 26/71/41 25/70/42
f 34/84/38 25/70/42 16/53/39
f 35/85/43 17/55/44 18/56/45
f 35/85/43 18/56/45 27/73/46
f 35/85/43 27/73/46 26/72/47
f 35/85/43 26/72/47 17/55/44
f 36/86/48 18/57/49 19/58/50
f 36/86/48 19/58/50 28/75/51
f 36/86/48 28/75/51 27/74/52
f 36/86/48 27/74/52 18/57/49
f 37/87/53 19/59/54 20/60/55
f 37/87/53 20/60/55 29/77/56
f 37/87/53 29/77/56 28/76/57
f 37/87/53 28/76/57 19/59/54
f 38/88/58 20/61/59 21/62/60
f 38/88/58 21/62/60 30/79/61
f 38/88/58 30/79/61 29/78/62
f 38/88/58 29/78/62 20/61/59
f 39/89/63 21/62/60 13/63/64
f 39/89/63 13/63/64 22/80/65
f 39/89/63 22/80/65 30/79/61
f 39/89/63 30/79/61 21/62/60
