mtllib Asset 80.mtl
# Vertex Positions: 
g groupNumber_0
v 0.461925 -0.889636 -0.1765
v 0.461925 0.889636 -0.1765
v 0.393497 0.889636 -0.1765
v 0.393497 -0.65405 -0.1765
v 0.0362566 0.366634 -0.1765
v -0.0362739 0.366634 -0.1765
v -0.393497 -0.65405 -0.1765
v -0.393497 0.889636 -0.1765
v -0.461925 0.889636 -0.1765
v -0.461925 -0.889636 -0.1765
v -0.403425 -0.889636 -0.1765
v -8.61845e-06 0.263044 -0.1765
v 0.403425 -0.889636 -0.1765
v 0.461925 -0.889636 0.1765
v 0.461925 0.889636 0.1765
v 0.393497 0.889636 0.1765
v 0.393497 -0.65405 0.1765
v 0.0362566 0.366634 0.1765
v -0.0362739 0.366634 0.1765
v -0.393497 -0.65405 0.1765
v -0.393497 0.889636 0.1765
v -0.461925 0.889636 0.1765
v -0.461925 -0.889636 0.1765
v -0.403425 -0.889636 0.1765
v -8.61845e-06 0.263044 0.1765
v 0.403425 -0.889636 0.1765
v 0.461925 0 0
v 0.427711 0.889636 0
v 0.393497 0.117793 0
v 0.214877 -0.143708 0
v -8.61804e-06 0.366634 0
v -0.214885 -0.143708 0
v -0.393497 0.117793 0
v -0.427711 0.889636 0
v -0.461925 0 0
v -0.432675 -0.889636 0
v -0.201717 -0.313296 0
v 0.201708 -0.313296 0
v 0.432675 -0.889636 0


# Vertex Texture Coordinates :
vt 0.25804 0
vt 0.25804 0.496967
vt 0.238927 0.496967
vt 0.238927 0.0658013
vt 0.139147 0.350888
vt 0.118888 0.350888
vt 0.0191126 0.0658013
vt 0.0191126 0.496967
vt 0 0.496967
vt 0 0
vt 0.0163396 0
vt 0.129017 0.321954
vt 0.2417 0
vt 0 0.503033
vt 0 1
vt 0.0191126 1
vt 0.0191126 0.568835
vt 0.118893 0.853921
vt 0.139151 0.853921
vt 0.238927 0.568835
vt 0.238927 1
vt 0.25804 1
vt 0.25804 0.503033
vt 0.2417 0.503033
vt 0.129022 0.824987
vt 0.0163396 0.503033
vt 0.264121 2.24987e-05
vt 0.761087 2.24987e-05
vt 0.767183 2.24987e-05
vt 0.786295 2.24987e-05
vt 0.264141 0.10473
vt 0.695306 0.10473
vt 0.264154 0.209438
vt 0.566198 0.209438
vt 0.792392 2.24987e-05
vt 0.812651 2.24987e-05
vt 0.572333 0.209438
vt 0.874375 0.209438
vt 0.264141 0.314145
vt 0.695306 0.314145
vt 0.880505 0.209438
vt 0.899617 0.209438
vt 0.264121 0.418853
vt 0.761087 0.418853
vt 0.905732 0.209438
vt 0.922072 0.209438
vt 0.264159 0.52356
vt 0.605261 0.52356
vt 0.611404 0.52356
vt 0.952508 0.52356
vt 0.958632 0.52356
vt 0.974972 0.52356
vt 0.264121 0.0986186
vt 0.761087 0.0986186
vt 0.767183 0.0986186
vt 0.786295 0.0986186
vt 0.264141 0.203326
vt 0.695306 0.203326
vt 0.264154 0.308034
vt 0.566198 0.308034
vt 0.792392 0.0986186
vt 0.812651 0.0986186
vt 0.572333 0.308034
vt 0.874375 0.308034
vt 0.264141 0.412741
vt 0.695306 0.412741
vt 0.880505 0.308034
vt 0.899617 0.308034
vt 0.264121 0.517449
vt 0.761087 0.517449
vt 0.905732 0.308034
vt 0.922072 0.308034
vt 0.264159 0.622157
vt 0.605261 0.622157
vt 0.611404 0.622157
vt 0.952508 0.622157
vt 0.958632 0.622157
vt 0.974972 0.622157
vt 0.512604 0.0493206
vt 0.776739 0.0493206
vt 0.479724 0.154028
vt 0.415176 0.258736
vt 0.802521 0.0493206
vt 0.723354 0.258736
vt 0.479724 0.363443
vt 0.890061 0.258736
vt 0.512604 0.468151
vt 0.913902 0.258736
vt 0.43471 0.572859
vt 0.781956 0.572859
vt 0.966802 0.572859


# Vertex Surface Normals: 
vn 0 0 1
vn 0 0 -1
vn 1 0 0
vn 1 0 0
vn 1 0 0
vn 1 0 0
vn 1 0 0
vn 0 1 0
vn 0 1 0
vn 0 1 0
vn 0 1 0
vn 0 1 0
vn -1 0 0
vn -1 0 0
vn -1 0 0
vn -1 0 0
vn -1 0 0
vn 0.943858 0.330351 0
vn 0.943858 0.330351 -1.48395e-17
vn 0.943858 0.330351 -1.48395e-17
vn 0.943858 0.330351 1.48395e-17
vn 0.943858 0.330351 1.48395e-17
vn 0 1 0
vn 0 1 0
vn 0 1 0
vn 0 1 0
vn 0 1 0
vn -0.943863 0.330337 0
vn -0.943863 0.330337 1.48396e-17
vn -0.943863 0.330337 1.48396e-17
vn -0.943863 0.330337 -1.48396e-17
vn -0.943863 0.330337 -1.48396e-17
vn 1 0 0
vn 1 0 0
vn 1 0 0
vn 1 0 0
vn 1 0 0
vn 0 1 0
vn 0 1 0
vn 0 1 0
vn 0 1 0
vn 0 1 0
vn -1 0 0
vn -1 0 0
vn -1 0 0
vn -1 0 0
vn -1 0 0
vn 0 -1 0
vn 0 -1 0
vn 0 -1 0
vn 0 -1 0
vn 0 -1 0
vn 0.943864 -0.330335 0
vn 0.943864 -0.330335 -1.17184e-17
vn 0.943864 -0.330335 -1.17184e-17
vn 0.943864 -0.330335 1.17184e-17
vn 0.943864 -0.330335 1.17184e-17
vn -0.943859 -0.330347 0
vn -0.943859 -0.330347 2.34365e-17
vn -0.943859 -0.330347 2.34365e-17
vn -0.943859 -0.330347 -2.34365e-17
vn -0.943859 -0.330347 -2.34365e-17
vn 0 -1 0
vn 0 -1 0
vn 0 -1 0
vn 0 -1 0
vn 0 -1 0


# Faces: 
usemtl material0
f 23/10/1 24/11/1 20/7/1
f 19/6/1 20/7/1 25/12/1
f 23/10/1 20/7/1 22/9/1
f 20/7/1 21/8/1 22/9/1
f 26/13/1 17/4/1 25/12/1
f 17/4/1 26/13/1 14/1/1
f 25/12/1 20/7/1 24/11/1
f 17/4/1 14/1/1 15/2/1
f 25/12/1 18/5/1 19/6/1
f 25/12/1 17/4/1 18/5/1
f 15/2/1 16/3/1 17/4/1
f 11/24/2 10/23/2 7/20/2
f 7/20/2 6/19/2 12/25/2
f 7/20/2 10/23/2 9/22/2
f 8/21/2 7/20/2 9/22/2
f 4/17/2 13/26/2 12/25/2
f 13/26/2 4/17/2 1/14/2
f 7/20/2 12/25/2 11/24/2
f 1/14/2 4/17/2 2/15/2
f 5/18/2 12/25/2 6/19/2
f 4/17/2 12/25/2 5/18/2
f 3/16/2 2/15/2 4/17/2
f 27/79/3 1/27/4 2/28/5
f 27/79/3 2/28/5 15/54/6
f 27/79/3 15/54/6 14/53/7
f 27/79/3 14/53/7 1/27/4
f 28/80/8 2/29/9 3/30/10
f 28/80/8 3/30/10 16/56/11
f 28/80/8 16/56/11 15/55/12
f 28/80/8 15/55/12 2/29/9
f 29/81/13 3/31/14 4/32/15
f 29/81/13 4/32/15 17/58/16
f 29/81/13 17/58/16 16/57/17
f 29/81/13 16/57/17 3/31/14
f 30/82/18 4/33/19 5/34/20
f 30/82/18 5/34/20 18/60/21
f 30/82/18 18/60/21 17/59/22
f 30/82/18 17/59/22 4/33/19
f 31/83/23 5/35/24 6/36/25
f 31/83/23 6/36/25 19/62/26
f 31/83/23 19/62/26 18/61/27
f 31/83/23 18/61/27 5/35/24
f 32/84/28 6/37/29 7/38/30
f 32/84/28 7/38/30 20/64/31
f 32/84/28 20/64/31 19/63/32
f 32/84/28 19/63/32 6/37/29
f 33/85/33 7/39/34 8/40/35
f 33/85/33 8/40/35 21/66/36
f 33/85/33 21/66/36 20/65/37
f 33/85/33 20/65/37 7/39/34
f 34/86/38 8/41/39 9/42/40
f 34/86/38 9/42/40 22/68/41
f 34/86/38 22/68/41 21/67/42
f 34/86/38 21/67/42 8/41/39
f 35/87/43 9/43/44 10/44/45
f 35/87/43 10/44/45 23/70/46
f 35/87/43 23/70/46 22/69/47
f 35/87/43 22/69/47 9/43/44
f 36/88/48 10/45/49 11/46/50
f 36/88/48 11/46/50 24/72/51
f 36/88/48 24/72/51 23/71/52
f 36/88/48 23/71/52 10/45/49
f 37/89/53 11/47/54 12/48/55
f 37/89/53 12/48/55 25/74/56
f 37/89/53 25/74/56 24/73/57
f 37/89/53 24/73/57 11/47/54
f 38/90/58 12/49/59 13/50/60
f 38/90/58 13/50/60 26/76/61
f 38/90/58 26/76/61 25/75/62
f 38/90/58 25/75/62 12/49/59
f 39/91/63 13/51/64 1/52/65
f 39/91/63 1/52/65 14/78/66
f 39/91/63 14/78/66 26/77/67
f 39/91/63 26/77/67 13/51/64
