mtllib Asset 60.mtl
# Vertex Positions: 
g groupNumber_0
v 0.461925 0.597859 -0.1765
v 0.461925 0.666288 -0.1765
v -0.238404 0.666288 -0.1765
v -0.238404 0.245773 -0.1765
v -0.461925 0.245773 -0.1765
v -0.461925 0.177345 -0.1765
v -0.238404 0.177345 -0.1765
v -0.238404 -0.17681 -0.1765
v -0.461925 -0.17681 -0.1765
v -0.461925 -0.245238 -0.1765
v -0.238404 -0.245238 -0.1765
v -0.238404 -0.666288 -0.1765
v 0.461925 -0.666288 -0.1765
v 0.461925 -0.597842 -0.1765
v -0.169976 -0.597842 -0.1765
v -0.169976 -0.245238 -0.1765
v 0.238318 -0.245238 -0.1765
v 0.238318 -0.17681 -0.1765
v -0.169976 -0.17681 -0.1765
v -0.169976 0.177345 -0.1765
v 0.238318 0.177345 -0.1765
v 0.238318 0.245773 -0.1765
v -0.169976 0.245773 -0.1765
v -0.169976 0.597859 -0.1765
v 0.461925 0.597859 0.1765
v 0.461925 0.666288 0.1765
v -0.238404 0.666288 0.1765
v -0.238404 0.245773 0.1765
v -0.461925 0.245773 0.1765
v -0.461925 0.177345 0.1765
v -0.238404 0.177345 0.1765
v -0.238404 -0.17681 0.1765
v -0.461925 -0.17681 0.1765
v -0.461925 -0.245238 0.1765
v -0.238404 -0.245238 0.1765
v -0.238404 -0.666288 0.1765
v 0.461925 -0.666288 0.1765
v 0.461925 -0.597842 0.1765
v -0.169976 -0.597842 0.1765
v -0.169976 -0.245238 0.1765
v 0.238318 -0.245238 0.1765
v 0.238318 -0.17681 0.1765
v -0.169976 -0.17681 0.1765
v -0.169976 0.177345 0.1765
v 0.238318 0.177345 0.1765
v 0.238318 0.245773 0.1765
v -0.169976 0.245773 0.1765
v -0.169976 0.597859 0.1765
v 0.461925 0.632073 0
v 0.11176 0.666288 0
v -0.238404 0.45603 0
v -0.350165 0.245773 0
v -0.461925 0.211559 0
v -0.350165 0.177345 0
v -0.238404 0.000267163 0
v -0.350165 -0.17681 0
v -0.461925 -0.211024 0
v -0.350165 -0.245238 0
v -0.238404 -0.455763 0
v 0.11176 -0.666288 0
v 0.461925 -0.632065 0
v 0.145974 -0.597842 0
v -0.169976 -0.42154 0
v 0.034171 -0.245238 0
v 0.238318 -0.211024 0
v 0.034171 -0.17681 0
v -0.169976 0.000267163 0
v 0.034171 0.177345 0
v 0.238318 0.211559 0
v 0.034171 0.245773 0
v -0.169976 0.421816 0
v 0.145974 0.597859 0


# Vertex Texture Coordinates :
vt 0.378447 0.517846
vt 0.378447 0.545877
vt 0.0915632 0.545877
vt 0.0915632 0.373617
vt 0 0.373617
vt 0 0.345586
vt 0.0915632 0.345586
vt 0.0915632 0.20051
vt 0 0.20051
vt 0 0.172479
vt 0.0915632 0.172479
vt 0.0915632 0
vt 0.378447 0
vt 0.378447 0.0280381
vt 0.119594 0.0280381
vt 0.119594 0.172479
vt 0.286848 0.172479
vt 0.286848 0.20051
vt 0.119594 0.20051
vt 0.119594 0.345586
vt 0.286848 0.345586
vt 0.286848 0.373617
vt 0.119594 0.373617
vt 0.119594 0.517846
vt 0.385153 0.517846
vt 0.385153 0.545877
vt 0.672036 0.545877
vt 0.672036 0.373617
vt 0.7636 0.373617
vt 0.7636 0.345586
vt 0.672036 0.345586
vt 0.672036 0.20051
vt 0.7636 0.20051
vt 0.7636 0.172479
vt 0.672036 0.172479
vt 0.672036 0
vt 0.385153 0
vt 0.385153 0.0280381
vt 0.644005 0.0280381
vt 0.644005 0.172479
vt 0.476751 0.172479
vt 0.476751 0.20051
vt 0.644005 0.20051
vt 0.644005 0.345586
vt 0.476751 0.345586
vt 0.476751 0.373617
vt 0.644005 0.373617
vt 0.644005 0.517846
vt 0.770329 6.44289e-05
vt 0.79836 6.44289e-05
vt 3.08901e-06 0.552605
vt 0.286887 0.552605
vt 0.805098 6.44289e-05
vt 0.977358 6.44289e-05
vt 0.805132 0.15146
vt 0.896695 0.15146
vt 0.293619 0.552605
vt 0.32165 0.552605
vt 0.903485 0.15146
vt 0.995049 0.15146
vt 0.805096 0.302856
vt 0.950172 0.302856
vt 4.23644e-05 0.704001
vt 0.0916056 0.704001
vt 0.956908 0.302856
vt 0.984939 0.302856
vt 4.23644e-05 0.855397
vt 0.0916056 0.855397
vt 0.0983861 0.704001
vt 0.270865 0.704001
vt 0.385156 0.552605
vt 0.672039 0.552605
vt 0.328399 0.552605
vt 0.356437 0.552605
vt 0.098379 0.855397
vt 0.357232 0.855397
vt 0.67874 0.552605
vt 0.82318 0.552605
vt 0.829857 0.552605
vt 0.997111 0.552605
vt 0.770329 0.15146
vt 0.79836 0.15146
vt 0.385132 0.704001
vt 0.552386 0.704001
vt 0.385159 0.855397
vt 0.530236 0.855397
vt 0.55905 0.704001
vt 0.726304 0.704001
vt 0.770329 0.302856
vt 0.79836 0.302856
vt 0.55905 0.855397
vt 0.726304 0.855397
vt 0.73302 0.704001
vt 0.877249 0.704001
vt 0.733015 0.855397
vt 0.991867 0.855397
vt 0.770329 0.144668
vt 0.79836 0.144668
vt 3.08901e-06 0.697209
vt 0.286887 0.697209
vt 0.805098 0.144668
vt 0.977358 0.144668
vt 0.805132 0.296063
vt 0.896695 0.296063
vt 0.293619 0.697209
vt 0.32165 0.697209
vt 0.903485 0.296063
vt 0.995049 0.296063
vt 0.805096 0.447459
vt 0.950172 0.447459
vt 4.23644e-05 0.848604
vt 0.0916056 0.848604
vt 0.956908 0.447459
vt 0.984939 0.447459
vt 4.23644e-05 1
vt 0.0916056 1
vt 0.0983861 0.848604
vt 0.270865 0.848604
vt 0.385156 0.697209
vt 0.672039 0.697209
vt 0.328399 0.697209
vt 0.356437 0.697209
vt 0.098379 1
vt 0.357232 1
vt 0.67874 0.697209
vt 0.82318 0.697209
vt 0.829857 0.697209
vt 0.997111 0.697209
vt 0.770329 0.296063
vt 0.79836 0.296063
vt 0.385132 0.848604
vt 0.552386 0.848604
vt 0.385159 1
vt 0.530236 1
vt 0.55905 0.848604
vt 0.726304 0.848604
vt 0.770329 0.447459
vt 0.79836 0.447459
vt 0.55905 1
vt 0.726304 1
vt 0.73302 0.848604
vt 0.877249 0.848604
vt 0.733015 1
vt 0.991867 1
vt 0.784344 0.0723661
vt 0.143445 0.624907
vt 0.891228 0.0723661
vt 0.850913 0.223762
vt 0.307635 0.624907
vt 0.949267 0.223762
vt 0.877634 0.375157
vt 0.045824 0.776303
vt 0.970924 0.375157
vt 0.045824 0.927698
vt 0.184626 0.776303
vt 0.528598 0.624907
vt 0.342418 0.624907
vt 0.227805 0.927698
vt 0.75096 0.624907
vt 0.913484 0.624907
vt 0.784344 0.223762
vt 0.468759 0.776303
vt 0.457698 0.927698
vt 0.642677 0.776303
vt 0.784344 0.375157
vt 0.642677 0.927698
vt 0.805135 0.776303
vt 0.862441 0.927698


# Vertex Surface Normals: 
vn 0 0 1
vn 0 0 -1
vn 1 0 0
vn 1 0 0
vn 1 0 0
vn 1 0 0
vn 1 0 0
vn 0 1 0
vn 0 1 0
vn 0 1 0
vn 0 1 0
vn 0 1 0
vn -1 0 0
vn -1 0 0
vn -1 0 0
vn -1 0 0
vn -1 0 0
vn 0 1 0
vn 0 1 0
vn 0 1 0
vn 0 1 0
vn 0 1 0
vn -1 0 0
vn -1 0 0
vn -1 0 0
vn -1 0 0
vn -1 0 0
vn 0 -1 0
vn 0 -1 0
vn 0 -1 0
vn 0 -1 0
vn 0 -1 0
vn -1 0 0
vn -1 0 0
vn -1 0 0
vn -1 0 0
vn -1 0 0
vn 0 1 0
vn 0 1 0
vn 0 1 0
vn 0 1 0
vn 0 1 0
vn -1 0 0
vn -1 0 0
vn -1 0 0
vn -1 0 0
vn -1 0 0
vn 0 -1 0
vn 0 -1 0
vn 0 -1 0
vn 0 -1 0
vn 0 -1 0
vn -1 0 0
vn -1 0 0
vn -1 0 0
vn -1 0 0
vn -1 0 0
vn 0 -1 0
vn 0 -1 0
vn 0 -1 0
vn 0 -1 0
vn 0 -1 0
vn 1 0 0
vn 1 0 0
vn 1 0 0
vn 1 0 0
vn 1 0 0
vn 0 1 0
vn 0 1 0
vn 0 1 0
vn 0 1 0
vn 0 1 0
vn 1 0 0
vn 1 0 0
vn 1 0 0
vn 1 0 0
vn 1 0 0
vn 0 -1 0
vn 0 -1 0
vn 0 -1 0
vn 0 -1 0
vn 0 -1 0
vn 1 0 0
vn 1 0 0
vn 1 0 0
vn 1 0 0
vn 1 0 0
vn 0 1 0
vn 0 1 0
vn 0 1 0
vn 0 1 0
vn 0 1 0
vn 1 0 0
vn 1 0 0
vn 1 0 0
vn 1 0 0
vn 1 0 0
vn 0 -1 0
vn 0 -1 0
vn 0 -1 0
vn 0 -1 0
vn 0 -1 0
vn 1 0 0
vn 1 0 0
vn 1 0 0
vn 1 0 0
vn 1 0 0
vn 0 1 0
vn 0 1 0
vn 0 1 0
vn 0 1 0
vn 0 1 0
vn 1 0 0
vn 1 0 0
vn 1 0 0
vn 1 0 0
vn 1 0 0
vn 0 -1 0
vn 0 -1 0
vn 0 -1 0
vn 0 -1 0
vn 0 -1 0


# Faces: 
usemtl material0
f 33/9/1 34/10/1 35/11/1
f 35/11/1 36/12/1 39/15/1
f 35/11/1 39/15/1 40/16/1
f 33/9/1 35/11/1 32/8/1
f 36/12/1 37/13/1 39/15/1
f 32/8/1 35/11/1 40/16/1
f 29/5/1 30/6/1 31/7/1
f 31/7/1 28/4/1 29/5/1
f 44/20/1 28/4/1 31/7/1
f 48/24/1 27/3/1 28/4/1
f 31/7/1 32/8/1 43/19/1
f 40/16/1 43/19/1 32/8/1
f 43/19/1 40/16/1 41/17/1
f 42/18/1 43/19/1 41/17/1
f 43/19/1 44/20/1 31/7/1
f 37/13/1 38/14/1 39/15/1
f 45/21/1 47/23/1 44/20/1
f 46/22/1 47/23/1 45/21/1
f 47/23/1 48/24/1 28/4/1
f 25/1/1 26/2/1 48/24/1
f 48/24/1 26/2/1 27/3/1
f 44/20/1 47/23/1 28/4/1
f 10/34/2 9/33/2 11/35/2
f 12/36/2 11/35/2 15/39/2
f 15/39/2 11/35/2 16/40/2
f 11/35/2 9/33/2 8/32/2
f 13/37/2 12/36/2 15/39/2
f 11/35/2 8/32/2 16/40/2
f 6/30/2 5/29/2 7/31/2
f 4/28/2 7/31/2 5/29/2
f 4/28/2 20/44/2 7/31/2
f 3/27/2 24/48/2 4/28/2
f 8/32/2 7/31/2 19/43/2
f 19/43/2 16/40/2 8/32/2
f 16/40/2 19/43/2 17/41/2
f 19/43/2 18/42/2 17/41/2
f 20/44/2 19/43/2 7/31/2
f 14/38/2 13/37/2 15/39/2
f 23/47/2 21/45/2 20/44/2
f 23/47/2 22/46/2 21/45/2
f 24/48/2 23/47/2 4/28/2
f 2/26/2 1/25/2 24/48/2
f 2/26/2 24/48/2 3/27/2
f 23/47/2 20/44/2 4/28/2
f 49/145/3 1/49/4 2/50/5
f 49/145/3 2/50/5 26/98/6
f 49/145/3 26/98/6 25/97/7
f 49/145/3 25/97/7 1/49/4
f 50/146/8 2/51/9 3/52/10
f 50/146/8 3/52/10 27/100/11
f 50/146/8 27/100/11 26/99/12
f 50/146/8 26/99/12 2/51/9
f 51/147/13 3/53/14 4/54/15
f 51/147/13 4/54/15 28/102/16
f 51/147/13 28/102/16 27/101/17
f 51/147/13 27/101/17 3/53/14
f 52/148/18 4/55/19 5/56/20
f 52/148/18 5/56/20 29/104/21
f 52/148/18 29/104/21 28/103/22
f 52/148/18 28/103/22 4/55/19
f 53/149/23 5/57/24 6/58/25
f 53/149/23 6/58/25 30/106/26
f 53/149/23 30/106/26 29/105/27
f 53/149/23 29/105/27 5/57/24
f 54/150/28 6/59/29 7/60/30
f 54/150/28 7/60/30 31/108/31
f 54/150/28 31/108/31 30/107/32
f 54/150/28 30/107/32 6/59/29
f 55/151/33 7/61/34 8/62/35
f 55/151/33 8/62/35 32/110/36
f 55/151/33 32/110/36 31/109/37
f 55/151/33 31/109/37 7/61/34
f 56/152/38 8/63/39 9/64/40
f 56/152/38 9/64/40 33/112/41
f 56/152/38 33/112/41 32/111/42
f 56/152/38 32/111/42 8/63/39
f 57/153/43 9/65/44 10/66/45
f 57/153/43 10/66/45 34/114/46
f 57/153/43 34/114/46 33/113/47
f 57/153/43 33/113/47 9/65/44
f 58/154/48 10/67/49 11/68/50
f 58/154/48 11/68/50 35/116/51
f 58/154/48 35/116/51 34/115/52
f 58/154/48 34/115/52 10/67/49
f 59/155/53 11/69/54 12/70/55
f 59/155/53 12/70/55 36/118/56
f 59/155/53 36/118/56 35/117/57
f 59/155/53 35/117/57 11/69/54
f 60/156/58 12/71/59 13/72/60
f 60/156/58 13/72/60 37/120/61
f 60/156/58 37/120/61 36/119/62
f 60/156/58 36/119/62 12/71/59
f 61/157/63 13/73/64 14/74/65
f 61/157/63 14/74/65 38/122/66
f 61/157/63 38/122/66 37/121/67
f 61/157/63 37/121/67 13/73/64
f 62/158/68 14/75/69 15/76/70
f 62/158/68 15/76/70 39/124/71
f 62/158/68 39/124/71 38/123/72
f 62/158/68 38/123/72 14/75/69
f 63/159/73 15/77/74 16/78/75
f 63/159/73 16/78/75 40/126/76
f 63/159/73 40/126/76 39/125/77
f 63/159/73 39/125/77 15/77/74
f 64/160/78 16/79/79 17/80/80
f 64/160/78 17/80/80 41/128/81
f 64/160/78 41/128/81 40/127/82
f 64/160/78 40/127/82 16/79/79
f 65/161/83 17/81/84 18/82/85
f 65/161/83 18/82/85 42/130/86
f 65/161/83 42/130/86 41/129/87
f 65/161/83 41/129/87 17/81/84
f 66/162/88 18/83/89 19/84/90
f 66/162/88 19/84/90 43/132/91
f 66/162/88 43/132/91 42/131/92
f 66/162/88 42/131/92 18/83/89
f 67/163/93 19/85/94 20/86/95
f 67/163/93 20/86/95 44/134/96
f 67/163/93 44/134/96 43/133/97
f 67/163/93 43/133/97 19/85/94
f 68/164/98 20/87/99 21/88/100
f 68/164/98 21/88/100 45/136/101
f 68/164/98 45/136/101 44/135/102
f 68/164/98 44/135/102 20/87/99
f 69/165/103 21/89/104 22/90/105
f 69/165/103 22/90/105 46/138/106
f 69/165/103 46/138/106 45/137/107
f 69/165/103 45/137/107 21/89/104
f 70/166/108 22/91/109 23/92/110
f 70/166/108 23/92/110 47/140/111
f 70/166/108 47/140/111 46/139/112
f 70/166/108 46/139/112 22/91/109
f 71/167/113 23/93/114 24/94/115
f 71/167/113 24/94/115 48/142/116
f 71/167/113 48/142/116 47/141/117
f 71/167/113 47/141/117 23/93/114
f 72/168/118 24/95/119 1/96/120
f 72/168/118 1/96/120 25/144/121
f 72/168/118 25/144/121 48/143/122
f 72/168/118 48/143/122 24/95/119
