mtllib Asset 64.mtl
# Vertex Positions: 
g groupNumber_0
v 0.169166 -0.889636 -0.1765
v -0.0977386 0 -0.1765
v 0.169166 0.889636 -0.1765
v 0.0977041 0.889636 -0.1765
v -0.169166 0 -0.1765
v 0.0977041 -0.889636 -0.1765
v 0.169166 -0.889636 0.1765
v -0.0977386 0 0.1765
v 0.169166 0.889636 0.1765
v 0.0977041 0.889636 0.1765
v -0.169166 0 0.1765
v 0.0977041 -0.889636 0.1765
v 0.0357137 -0.444818 0
v 0.0357137 0.444818 0
v 0.133435 0.889636 0
v -0.0357309 0.444818 0
v -0.0357309 -0.444818 0
v 0.133435 -0.889636 0


# Vertex Texture Coordinates :
vt 0.131163 1.00614e-05
vt 0.0277295 0.344772
vt 0.131163 0.689533
vt 0.10347 0.689533
vt 4.918e-05 0.344772
vt 0.10347 1.00614e-05
vt 0.140125 1.00614e-05
vt 0.243559 0.344772
vt 0.140125 0.689533
vt 0.167818 0.689533
vt 0.271239 0.344772
vt 0.167818 1.00614e-05
vt 0.280113 0
vt 0.640057 0
vt 1 0
vt 8.12202e-17 0.698445
vt 0.0276937 0.698445
vt 0.280117 0.1457
vt 0.640057 0.1457
vt 0.999996 0.1457
vt 0 0.844144
vt 0.0276937 0.844144
vt 0.280113 0.136799
vt 0.640057 0.136799
vt 1 0.136799
vt 8.12202e-17 0.835243
vt 0.0276937 0.835243
vt 0.280117 0.282498
vt 0.640057 0.282498
vt 0.999996 0.282498
vt 0 0.980943
vt 0.0276937 0.980943
vt 0.460085 0.0683993
vt 0.820028 0.0683993
vt 0.0138468 0.766844
vt 0.460087 0.214099
vt 0.820026 0.214099
vt 0.0138468 0.912544


# Vertex Surface Normals: 
vn 0 0 1
vn 0 0 -1
vn 0.957822 0.287362 0
vn 0.957822 0.287362 0
vn 1 0 0
vn 1 0 0
vn 0.957822 0.287362 0
vn 0.957822 -0.287362 0
vn 0.957822 -0.287362 0
vn 0.957822 -0.287362 0
vn 0 1 0
vn 0 1 0
vn 0 1 0
vn 0 1 0
vn 0 1 0
vn -0.957832 0.287327 0
vn -0.957832 0.287327 0
vn -1 0 0
vn -1 0 0
vn -0.957832 0.287327 0
vn -0.957832 -0.287327 0
vn -0.957832 -0.287327 0
vn -0.957832 -0.287327 0
vn 0 -1 0
vn 0 -1 0
vn 0 -1 0
vn 0 -1 0
vn 0 -1 0


# Faces: 
usemtl material0
f 11/5/1 12/6/1 8/2/1
f 8/2/1 12/6/1 7/1/1
f 11/5/1 8/2/1 10/4/1
f 8/2/1 9/3/1 10/4/1
f 6/12/2 5/11/2 2/8/2
f 6/12/2 2/8/2 1/7/2
f 2/8/2 5/11/2 4/10/2
f 3/9/2 2/8/2 4/10/2
f 13/33/3 1/13/4 2/14/5
f 13/33/3 2/14/5 8/24/6
f 13/33/3 8/24/6 7/23/7
f 13/33/3 7/23/7 1/13/4
f 14/34/8 2/14/5 3/15/9
f 14/34/8 3/15/9 9/25/10
f 14/34/8 9/25/10 8/24/6
f 14/34/8 8/24/6 2/14/5
f 15/35/11 3/16/12 4/17/13
f 15/35/11 4/17/13 10/27/14
f 15/35/11 10/27/14 9/26/15
f 15/35/11 9/26/15 3/16/12
f 16/36/16 4/18/17 5/19/18
f 16/36/16 5/19/18 11/29/19
f 16/36/16 11/29/19 10/28/20
f 16/36/16 10/28/20 4/18/17
f 17/37/21 5/19/18 6/20/22
f 17/37/21 6/20/22 12/30/23
f 17/37/21 12/30/23 11/29/19
f 17/37/21 11/29/19 5/19/18
f 18/38/24 6/21/25 1/22/26
f 18/38/24 1/22/26 7/32/27
f 18/38/24 7/32/27 12/31/28
f 18/38/24 12/31/28 6/21/25
