mtllib Asset 81.mtl
# Vertex Positions: 
g groupNumber_0
v 0.0267163 -0.889636 -0.1765
v 0.471534 0.889636 -0.1765
v 0.401003 0.889636 -0.1765
v 0 -0.714342 -0.1765
v -0.400986 0.889636 -0.1765
v -0.471534 0.889636 -0.1765
v -0.0267163 -0.889636 -0.1765
v 0.0267163 -0.889636 0.1765
v 0.471534 0.889636 0.1765
v 0.401003 0.889636 0.1765
v 0 -0.714342 0.1765
v -0.400986 0.889636 0.1765
v -0.471534 0.889636 0.1765
v -0.0267163 -0.889636 0.1765
v 0.249125 0 0
v 0.436269 0.889636 0
v 0.200502 0.0876467 0
v -0.200493 0.0876467 0
v -0.43626 0.889636 0
v -0.249125 0 0
v 0 -0.889636 0


# Vertex Texture Coordinates :
vt 0.139135 0
vt 0.263349 0.496856
vt 0.243653 0.496856
vt 0.131674 0.0489501
vt 0.0197004 0.496856
vt 0 0.496856
vt 0.124214 0
vt 0.124214 0.503144
vt 0 1
vt 0.0196956 1
vt 0.131674 0.552095
vt 0.243648 1
vt 0.263349 1
vt 0.139135 0.503144
vt 0.269651 2.11075e-05
vt 0.781798 2.11075e-05
vt 0.78808 2.11075e-05
vt 0.807776 2.11075e-05
vt 0.269685 0.104926
vt 0.731376 0.104926
vt 0.269685 0.209831
vt 0.731375 0.209831
vt 0.814085 2.11075e-05
vt 0.833786 2.11075e-05
vt 0.269651 0.314736
vt 0.781798 0.314736
vt 0.840107 2.11075e-05
vt 0.855028 2.11075e-05
vt 0.269651 0.0985952
vt 0.781798 0.0985952
vt 0.78808 0.0985952
vt 0.807776 0.0985952
vt 0.269685 0.2035
vt 0.731376 0.2035
vt 0.269685 0.308405
vt 0.731375 0.308405
vt 0.814085 0.0985952
vt 0.833786 0.0985952
vt 0.269651 0.41331
vt 0.781798 0.41331
vt 0.840107 0.0985952
vt 0.855028 0.0985952
vt 0.525725 0.0493081
vt 0.797928 0.0493081
vt 0.50053 0.154213
vt 0.50053 0.259118
vt 0.823936 0.0493081
vt 0.525725 0.364023
vt 0.847567 0.0493081


# Vertex Surface Normals: 
vn 0 0 1
vn 0 0 -1
vn 0.970143 -0.242536 0
vn 0.970143 -0.242536 1.20221e-17
vn 0.970143 -0.242536 1.20221e-17
vn 0.970143 -0.242536 -1.20221e-17
vn 0.970143 -0.242536 -1.20221e-17
vn 0 1 0
vn 0 1 0
vn 0 1 0
vn 0 1 0
vn 0 1 0
vn -0.970141 0.242541 0
vn -0.970141 0.242541 0
vn -0.970141 0.242541 0
vn -0.970141 0.242541 0
vn -0.970141 0.242541 0
vn 0.970144 0.242531 0
vn 0.970144 0.242531 -1.47528e-17
vn 0.970144 0.242531 -1.47528e-17
vn 0.970144 0.242531 1.47528e-17
vn 0.970144 0.242531 1.47528e-17
vn 0 1 0
vn 0 1 0
vn 0 1 0
vn 0 1 0
vn 0 1 0
vn -0.970143 -0.242536 0
vn -0.970143 -0.242536 0
vn -0.970143 -0.242536 0
vn -0.970143 -0.242536 0
vn -0.970143 -0.242536 0
vn 0 -1 0
vn 0 -1 0
vn 0 -1 0
vn 0 -1 0
vn 0 -1 0


# Faces: 
usemtl material0
f 12/5/1 13/6/1 11/4/1
f 11/4/1 13/6/1 14/7/1
f 11/4/1 8/1/1 9/2/1
f 8/1/1 11/4/1 14/7/1
f 9/2/1 10/3/1 11/4/1
f 6/13/2 5/12/2 4/11/2
f 6/13/2 4/11/2 7/14/2
f 1/8/2 4/11/2 2/9/2
f 4/11/2 1/8/2 7/14/2
f 3/10/2 2/9/2 4/11/2
f 15/43/3 1/15/4 2/16/5
f 15/43/3 2/16/5 9/30/6
f 15/43/3 9/30/6 8/29/7
f 15/43/3 8/29/7 1/15/4
f 16/44/8 2/17/9 3/18/10
f 16/44/8 3/18/10 10/32/11
f 16/44/8 10/32/11 9/31/12
f 16/44/8 9/31/12 2/17/9
f 17/45/13 3/19/14 4/20/15
f 17/45/13 4/20/15 11/34/16
f 17/45/13 11/34/16 10/33/17
f 17/45/13 10/33/17 3/19/14
f 18/46/18 4/21/19 5/22/20
f 18/46/18 5/22/20 12/36/21
f 18/46/18 12/36/21 11/35/22
f 18/46/18 11/35/22 4/21/19
f 19/47/23 5/23/24 6/24/25
f 19/47/23 6/24/25 13/38/26
f 19/47/23 13/38/26 12/37/27
f 19/47/23 12/37/27 5/23/24
f 20/48/28 6/25/29 7/26/30
f 20/48/28 7/26/30 14/40/31
f 20/48/28 14/40/31 13/39/32
f 20/48/28 13/39/32 6/25/29
f 21/49/33 7/27/34 1/28/35
f 21/49/33 1/28/35 8/42/36
f 21/49/33 8/42/36 14/41/37
f 21/49/33 14/41/37 7/27/34
