mtllib Asset 55.mtl
# Vertex Positions: 
g groupNumber_0
v 0.169157 0.820958 -0.1765
v 0.169157 0.889386 -0.1765
v -0.169157 0.889386 -0.1765
v -0.169157 -0.889386 -0.1765
v 0.169157 -0.889386 -0.1765
v 0.169157 -0.82094 -0.1765
v -0.100729 -0.82094 -0.1765
v -0.100729 0.820958 -0.1765
v 0.169157 0.820958 0.1765
v 0.169157 0.889386 0.1765
v -0.169157 0.889386 0.1765
v -0.169157 -0.889386 0.1765
v 0.169157 -0.889386 0.1765
v 0.169157 -0.82094 0.1765
v -0.100729 -0.82094 0.1765
v -0.100729 0.820958 0.1765
v 0.169157 0.855172 0
v 0 0.889386 0
v -0.169157 0 0
v 0 -0.889386 0
v 0.169157 -0.855163 0
v 0.0342141 -0.82094 0
v -0.100729 8.6181e-06 0
v 0.0342141 0.820958 0


# Vertex Texture Coordinates :
vt 0.127493 0.644301
vt 0.127493 0.670079
vt 4.65311e-05 0.670079
vt 4.65311e-05 0
vt 0.127493 0
vt 0.127493 0.025784
vt 0.025824 0.025784
vt 0.025824 0.644301
vt 0.135829 0.644301
vt 0.135829 0.670079
vt 0.263275 0.670079
vt 0.263275 0
vt 0.135829 0
vt 0.135829 0.025784
vt 0.237498 0.025784
vt 0.237498 0.644301
vt 3.24651e-06 0.67827
vt 0.0257807 0.67827
vt 0.135829 0.67827
vt 0.263275 0.67827
vt 0.271533 1.1657e-05
vt 0.941612 1.1657e-05
vt 0.135829 0.819451
vt 0.263275 0.819451
vt 0 0.819451
vt 0.025784 0.819451
vt 0.271577 0.141193
vt 0.373245 0.141193
vt 0.381483 0.141193
vt 1 0.141193
vt 0.271577 0.282374
vt 0.373245 0.282374
vt 3.24651e-06 0.811248
vt 0.0257807 0.811248
vt 0.135829 0.811248
vt 0.263275 0.811248
vt 0.271533 0.13299
vt 0.941612 0.13299
vt 0.135829 0.952429
vt 0.263275 0.952429
vt 0 0.952429
vt 0.025784 0.952429
vt 0.271577 0.274171
vt 0.373245 0.274171
vt 0.381483 0.274171
vt 1 0.274171
vt 0.271577 0.415352
vt 0.373245 0.415352
vt 0.012892 0.744759
vt 0.199552 0.744759
vt 0.606573 0.0665007
vt 0.199552 0.88594
vt 0.012892 0.88594
vt 0.322411 0.207682
vt 0.690741 0.207682
vt 0.322411 0.348863


# Vertex Surface Normals: 
vn 0 0 1
vn 0 0 -1
vn 1 0 0
vn 1 0 0
vn 1 0 0
vn 1 0 0
vn 1 0 0
vn 0 1 0
vn 0 1 0
vn 0 1 0
vn 0 1 0
vn 0 1 0
vn -1 0 0
vn -1 0 0
vn -1 0 0
vn -1 0 0
vn -1 0 0
vn 0 -1 0
vn 0 -1 0
vn 0 -1 0
vn 0 -1 0
vn 0 -1 0
vn 1 0 0
vn 1 0 0
vn 1 0 0
vn 1 0 0
vn 1 0 0
vn 0 1 0
vn 0 1 0
vn 0 1 0
vn 0 1 0
vn 0 1 0
vn 1 0 0
vn 1 0 0
vn 1 0 0
vn 1 0 0
vn 1 0 0
vn 0 -1 0
vn 0 -1 0
vn 0 -1 0
vn 0 -1 0
vn 0 -1 0


# Faces: 
usemtl material0
f 12/4/1 15/7/1 11/3/1
f 15/7/1 12/4/1 13/5/1
f 11/3/1 16/8/1 10/2/1
f 16/8/1 11/3/1 15/7/1
f 13/5/1 14/6/1 15/7/1
f 9/1/1 10/2/1 16/8/1
f 7/15/2 4/12/2 3/11/2
f 4/12/2 7/15/2 5/13/2
f 8/16/2 3/11/2 2/10/2
f 3/11/2 8/16/2 7/15/2
f 6/14/2 5/13/2 7/15/2
f 2/10/2 1/9/2 8/16/2
f 17/49/3 1/17/4 2/18/5
f 17/49/3 2/18/5 10/34/6
f 17/49/3 10/34/6 9/33/7
f 17/49/3 9/33/7 1/17/4
f 18/50/8 2/19/9 3/20/10
f 18/50/8 3/20/10 11/36/11
f 18/50/8 11/36/11 10/35/12
f 18/50/8 10/35/12 2/19/9
f 19/51/13 3/21/14 4/22/15
f 19/51/13 4/22/15 12/38/16
f 19/51/13 12/38/16 11/37/17
f 19/51/13 11/37/17 3/21/14
f 20/52/18 4/23/19 5/24/20
f 20/52/18 5/24/20 13/40/21
f 20/52/18 13/40/21 12/39/22
f 20/52/18 12/39/22 4/23/19
f 21/53/23 5/25/24 6/26/25
f 21/53/23 6/26/25 14/42/26
f 21/53/23 14/42/26 13/41/27
f 21/53/23 13/41/27 5/25/24
f 22/54/28 6/27/29 7/28/30
f 22/54/28 7/28/30 15/44/31
f 22/54/28 15/44/31 14/43/32
f 22/54/28 14/43/32 6/27/29
f 23/55/33 7/29/34 8/30/35
f 23/55/33 8/30/35 16/46/36
f 23/55/33 16/46/36 15/45/37
f 23/55/33 15/45/37 7/29/34
f 24/56/38 8/31/39 1/32/40
f 24/56/38 1/32/40 9/48/41
f 24/56/38 9/48/41 16/47/42
f 24/56/38 16/47/42 8/31/39
