mtllib Asset 102.mtl
# Vertex Positions: 
g groupNumber_0
v 0.136865 0.821208 -0.1765
v 0.136865 0.0342141 -0.1765
v -0.393497 0.0342141 -0.1765
v -0.393497 0.821208 -0.1765
v 0.136865 0.821208 0.1765
v 0.136865 0.0342141 0.1765
v -0.393497 0.0342141 0.1765
v -0.393497 0.821208 0.1765
v 0.136865 0.427711 0
v -0.128316 0.0342141 0
v -0.393497 0.427711 0
v -0.128316 0.821208 0
v 0.393497 -0.0342141 -0.1765
v 0.393497 -0.821208 -0.1765
v -0.393497 -0.821208 -0.1765
v -0.393497 -0.0342141 -0.1765
v 0.393497 -0.0342141 0.1765
v 0.393497 -0.821208 0.1765
v -0.393497 -0.821208 0.1765
v -0.393497 -0.0342141 0.1765
v 0.393497 -0.427711 0
v 0 -0.821208 0
v -0.393497 -0.427711 0
v 0 -0.0342141 0
v 0.461925 -0.889636 -0.1765
v 0.461925 0.0342141 -0.1765
v 0.205293 0.0342141 -0.1765
v 0.205293 0.889636 -0.1765
v -0.461925 0.889636 -0.1765
v -0.461925 -0.889636 -0.1765
v 0.461925 -0.889636 0.1765
v 0.461925 0.0342141 0.1765
v 0.205293 0.0342141 0.1765
v 0.205293 0.889636 0.1765
v -0.461925 0.889636 0.1765
v -0.461925 -0.889636 0.1765
v 0.461925 -0.427711 0
v 0.333609 0.0342141 0
v 0.205293 0.461925 0
v -0.128316 0.889636 0
v -0.461925 0 0
v 0 -0.889636 0


# Vertex Texture Coordinates :
vt 0.167248 0.477854
vt 0.167248 0.25804
vt 0.0191126 0.25804
vt 0.0191126 0.477854
vt 0.238927 0.238927
vt 0.238927 0.0191126
vt 0.0191126 0.0191126
vt 0.0191126 0.238927
vt 0.25804 0
vt 0.25804 0.25804
vt 0.18636 0.25804
vt 0.18636 0.496967
vt 0 0.496967
vt 0 0
vt 0.0907922 0.980887
vt 0.0907922 0.761073
vt 0.238927 0.761073
vt 0.238927 0.980887
vt 0.0191126 0.74196
vt 0.0191126 0.522146
vt 0.238927 0.522146
vt 0.238927 0.74196
vt 0 0.503033
vt 0 0.761073
vt 0.0716796 0.761073
vt 0.0716796 1
vt 0.25804 1
vt 0.25804 0.503033
vt 0.264138 2.24987e-05
vt 0.483953 2.24987e-05
vt 0.490041 2.24987e-05
vt 0.638176 2.24987e-05
vt 0.644264 2.24987e-05
vt 0.864079 2.24987e-05
vt 0.264125 0.10473
vt 0.41226 0.10473
vt 0.264138 0.0986186
vt 0.483953 0.0986186
vt 0.490041 0.0986186
vt 0.638176 0.0986186
vt 0.644264 0.0986186
vt 0.864079 0.0986186
vt 0.264125 0.203326
vt 0.41226 0.203326
vt 0.374045 0.0493206
vt 0.564108 0.0493206
vt 0.754172 0.0493206
vt 0.338192 0.154028
vt 0.418348 0.10473
vt 0.638163 0.10473
vt 0.644264 0.10473
vt 0.864079 0.10473
vt 0.264138 0.209438
vt 0.483953 0.209438
vt 0.490054 0.209438
vt 0.709869 0.209438
vt 0.418348 0.203326
vt 0.638163 0.203326
vt 0.644264 0.203326
vt 0.864079 0.203326
vt 0.264138 0.308034
vt 0.483953 0.308034
vt 0.490054 0.308034
vt 0.709869 0.308034
vt 0.528255 0.154028
vt 0.754172 0.154028
vt 0.374045 0.258736
vt 0.599961 0.258736
vt 0.715967 0.209438
vt 0.974007 0.209438
vt 0.870176 2.24987e-05
vt 0.941856 2.24987e-05
vt 0.264167 0.314145
vt 0.503094 0.314145
vt 0.509208 0.314145
vt 0.695568 0.314145
vt 0.264121 0.418853
vt 0.761087 0.418853
vt 0.70165 0.314145
vt 0.95969 0.314145
vt 0.715967 0.308034
vt 0.974007 0.308034
vt 0.870176 0.0986186
vt 0.941856 0.0986186
vt 0.264167 0.412741
vt 0.503094 0.412741
vt 0.509208 0.412741
vt 0.695568 0.412741
vt 0.264121 0.517449
vt 0.761087 0.517449
vt 0.70165 0.412741
vt 0.95969 0.412741
vt 0.844987 0.258736
vt 0.906016 0.0493206
vt 0.38363 0.363443
vt 0.602388 0.363443
vt 0.512604 0.468151
vt 0.83067 0.363443


# Vertex Surface Normals: 
vn 0 0 1
vn 0 0 -1
vn -1 0 0
vn -1 0 0
vn -1 0 0
vn -1 0 0
vn -1 0 0
vn 0 1 0
vn 0 1 0
vn 0 1 0
vn 0 1 0
vn 0 1 0
vn 1 0 0
vn 1 0 0
vn 1 0 0
vn 1 0 0
vn 1 0 0
vn 0 -1 0
vn 0 -1 0
vn 0 -1 0
vn 0 -1 0
vn 0 -1 0
vn -1 0 0
vn -1 0 0
vn -1 0 0
vn -1 0 0
vn -1 0 0
vn 0 1 0
vn 0 1 0
vn 0 1 0
vn 0 1 0
vn 0 1 0
vn 1 0 0
vn 1 0 0
vn 1 0 0
vn 1 0 0
vn 1 0 0
vn 0 -1 0
vn 0 -1 0
vn 0 -1 0
vn 0 -1 0
vn 0 -1 0
vn 1 0 0
vn 1 0 0
vn 1 0 0
vn 1 0 0
vn 1 0 0
vn 0 1 0
vn 0 1 0
vn 0 1 0
vn 0 1 0
vn 0 1 0
vn 1 0 0
vn 1 0 0
vn 1 0 0
vn 1 0 0
vn 1 0 0
vn 0 1 0
vn 0 1 0
vn 0 1 0
vn 0 1 0
vn 0 1 0
vn -1 0 0
vn -1 0 0
vn -1 0 0
vn -1 0 0
vn -1 0 0
vn 0 -1 0
vn 0 -1 0
vn 0 -1 0
vn 0 -1 0
vn 0 -1 0


# Faces: 
usemtl material0
f 36/14/1 19/7/1 20/8/1
f 19/7/1 36/14/1 31/9/1
f 36/14/1 20/8/1 7/3/1
f 35/13/1 7/3/1 8/4/1
f 7/3/1 35/13/1 36/14/1
f 7/3/1 20/8/1 6/2/1
f 35/13/1 8/4/1 5/1/1
f 18/6/1 31/9/1 17/5/1
f 31/9/1 18/6/1 19/7/1
f 17/5/1 31/9/1 32/10/1
f 17/5/1 33/11/1 6/2/1
f 33/11/1 5/1/1 6/2/1
f 34/12/1 5/1/1 33/11/1
f 33/11/1 17/5/1 32/10/1
f 5/1/1 34/12/1 35/13/1
f 6/2/1 20/8/1 17/5/1
f 15/21/2 30/28/2 16/22/2
f 30/28/2 15/21/2 25/23/2
f 16/22/2 30/28/2 3/17/2
f 3/17/2 29/27/2 4/18/2
f 29/27/2 3/17/2 30/28/2
f 16/22/2 3/17/2 2/16/2
f 4/18/2 29/27/2 1/15/2
f 25/23/2 14/20/2 13/19/2
f 14/20/2 25/23/2 15/21/2
f 25/23/2 13/19/2 26/24/2
f 27/25/2 13/19/2 2/16/2
f 1/15/2 27/25/2 2/16/2
f 1/15/2 28/26/2 27/25/2
f 13/19/2 27/25/2 26/24/2
f 28/26/2 1/15/2 29/27/2
f 16/22/2 2/16/2 13/19/2
f 9/45/3 1/29/4 2/30/5
f 9/45/3 2/30/5 6/38/6
f 9/45/3 6/38/6 5/37/7
f 9/45/3 5/37/7 1/29/4
f 10/46/8 2/31/9 3/32/10
f 10/46/8 3/32/10 7/40/11
f 10/46/8 7/40/11 6/39/12
f 10/46/8 6/39/12 2/31/9
f 11/47/13 3/33/14 4/34/15
f 11/47/13 4/34/15 8/42/16
f 11/47/13 8/42/16 7/41/17
f 11/47/13 7/41/17 3/33/14
f 12/48/18 4/35/19 1/36/20
f 12/48/18 1/36/20 5/44/21
f 12/48/18 5/44/21 8/43/22
f 12/48/18 8/43/22 4/35/19
f 21/65/23 13/49/24 14/50/25
f 21/65/23 14/50/25 18/58/26
f 21/65/23 18/58/26 17/57/27
f 21/65/23 17/57/27 13/49/24
f 22/66/28 14/51/29 15/52/30
f 22/66/28 15/52/30 19/60/31
f 22/66/28 19/60/31 18/59/32
f 22/66/28 18/59/32 14/51/29
f 23/67/33 15/53/34 16/54/35
f 23/67/33 16/54/35 20/62/36
f 23/67/33 20/62/36 19/61/37
f 23/67/33 19/61/37 15/53/34
f 24/68/38 16/55/39 13/56/40
f 24/68/38 13/56/40 17/64/41
f 24/68/38 17/64/41 20/63/42
f 24/68/38 20/63/42 16/55/39
f 37/93/43 25/69/44 26/70/45
f 37/93/43 26/70/45 32/82/46
f 37/93/43 32/82/46 31/81/47
f 37/93/43 31/81/47 25/69/44
f 38/94/48 26/71/49 27/72/50
f 38/94/48 27/72/50 33/84/51
f 38/94/48 33/84/51 32/83/52
f 38/94/48 32/83/52 26/71/49
f 39/95/53 27/73/54 28/74/55
f 39/95/53 28/74/55 34/86/56
f 39/95/53 34/86/56 33/85/57
f 39/95/53 33/85/57 27/73/54
f 40/96/58 28/75/59 29/76/60
f 40/96/58 29/76/60 35/88/61
f 40/96/58 35/88/61 34/87/62
f 40/96/58 34/87/62 28/75/59
f 41/97/63 29/77/64 30/78/65
f 41/97/63 30/78/65 36/90/66
f 41/97/63 36/90/66 35/89/67
f 41/97/63 35/89/67 29/77/64
f 42/98/68 30/79/69 25/80/70
f 42/98/68 25/80/70 31/92/71
f 42/98/68 31/92/71 36/91/72
f 42/98/68 36/91/72 30/79/69
