mtllib Asset 103.mtl
# Vertex Positions: 
g groupNumber_0
v -3.4473e-05 0.71436 -0.1765
v 0.170019 0.0342141 -0.1765
v -0.170088 0.0342141 -0.1765
v -3.4473e-05 0.71436 0.1765
v 0.170019 0.0342141 0.1765
v -0.170088 0.0342141 0.1765
v 0.0849923 0.374287 0
v -3.44726e-05 0.0342141 0
v -0.0850613 0.374287 0
v 0.471517 -0.889636 -0.1765
v 0.257614 -0.0342141 -0.1765
v 0.240516 0.0342141 -0.1765
v 0.0266818 0.889636 -0.1765
v -0.0267508 0.889636 -0.1765
v -0.240585 0.0342141 -0.1765
v -0.2577 -0.0342141 -0.1765
v -0.471517 -0.889636 -0.1765
v -0.401003 -0.889636 -0.1765
v -0.187204 -0.0342141 -0.1765
v 0.187135 -0.0342141 -0.1765
v 0.401003 -0.889636 -0.1765
v 0.471517 -0.889636 0.1765
v 0.257614 -0.0342141 0.1765
v 0.240516 0.0342141 0.1765
v 0.0266818 0.889636 0.1765
v -0.0267508 0.889636 0.1765
v -0.240585 0.0342141 0.1765
v -0.2577 -0.0342141 0.1765
v -0.471517 -0.889636 0.1765
v -0.401003 -0.889636 0.1765
v -0.187204 -0.0342141 0.1765
v 0.187135 -0.0342141 0.1765
v 0.401003 -0.889636 0.1765
v 0.364566 -0.461925 0
v 0.249065 0 0
v 0.133599 0.461925 0
v -3.4473e-05 0.889636 0
v -0.133668 0.461925 0
v -0.249143 0 0
v -0.364609 -0.461925 0
v -0.43626 -0.889636 0
v -0.294103 -0.461925 0
v -3.44726e-05 -0.0342141 0
v 0.294069 -0.461925 0
v 0.43626 -0.889636 0


# Vertex Texture Coordinates :
vt 0.13166 0.44791
vt 0.179147 0.257982
vt 0.0841729 0.257982
vt 0.263339 0
vt 0.203607 0.238873
vt 0.198832 0.257982
vt 0.13912 0.496855
vt 0.124199 0.496855
vt 0.064487 0.257982
vt 0.0597075 0.238873
vt 0 0
vt 0.0196907 0
vt 0.0793934 0.238873
vt 0.183926 0.238873
vt 0.243648 0
vt 0.131679 0.951055
vt 0.0841922 0.761127
vt 0.179166 0.761127
vt 0 0.503145
vt 0.0597316 0.742018
vt 0.0645062 0.761127
vt 0.124219 1
vt 0.139139 1
vt 0.198852 0.761127
vt 0.203631 0.742018
vt 0.263339 0.503145
vt 0.243648 0.503145
vt 0.183945 0.742018
vt 0.0794127 0.742018
vt 0.0196907 0.503145
vt 0.269663 2.06534e-05
vt 0.465437 2.06534e-05
vt 0.471732 2.06534e-05
vt 0.566705 2.06534e-05
vt 0.573 2.06534e-05
vt 0.768775 2.06534e-05
vt 0.269663 0.0985946
vt 0.465437 0.0985946
vt 0.471732 0.0985946
vt 0.566705 0.0985946
vt 0.573 0.0985946
vt 0.768775 0.0985946
vt 0.36755 0.0493076
vt 0.519219 0.0493076
vt 0.670887 0.0493076
vt 0.269647 0.104926
vt 0.515875 0.104926
vt 0.535571 0.104926
vt 0.781794 0.104926
vt 0.788088 0.104926
vt 0.803009 0.104926
vt 0.269649 0.209831
vt 0.515873 0.209831
vt 0.53557 0.209831
vt 0.781792 0.209831
vt 0.809335 0.104926
vt 0.829025 0.104926
vt 0.269697 0.314736
vt 0.515918 0.314736
vt 0.835371 0.104926
vt 0.939904 0.104926
vt 0.522267 0.314736
vt 0.768493 0.314736
vt 0.946249 0.104926
vt 0.96594 0.104926
vt 0.269647 0.2035
vt 0.515875 0.2035
vt 0.535571 0.2035
vt 0.781794 0.2035
vt 0.788088 0.2035
vt 0.803009 0.2035
vt 0.269649 0.308405
vt 0.515873 0.308405
vt 0.53557 0.308405
vt 0.781792 0.308405
vt 0.809335 0.2035
vt 0.829025 0.2035
vt 0.269697 0.41331
vt 0.515918 0.41331
vt 0.835371 0.2035
vt 0.939904 0.2035
vt 0.522267 0.41331
vt 0.768493 0.41331
vt 0.946249 0.2035
vt 0.96594 0.2035
vt 0.392761 0.154213
vt 0.525723 0.154213
vt 0.658682 0.154213
vt 0.795548 0.154213
vt 0.392761 0.259118
vt 0.525721 0.259118
vt 0.658681 0.259118
vt 0.81918 0.154213
vt 0.392807 0.364023
vt 0.887637 0.154213
vt 0.64538 0.364023
vt 0.956094 0.154213


# Vertex Surface Normals: 
vn 0 0 1
vn 0 0 -1
vn -0.970137 -0.242559 0
vn -0.970137 -0.242559 1.52836e-17
vn -0.970137 -0.242559 1.52836e-17
vn -0.970137 -0.242559 -1.52836e-17
vn -0.970137 -0.242559 -1.52836e-17
vn 0 1 0
vn 0 1 0
vn 0 1 0
vn 0 1 0
vn 0 1 0
vn 0.970137 -0.242559 0
vn 0.970137 -0.242559 0
vn 0.970137 -0.242559 0
vn 0.970137 -0.242559 0
vn 0.970137 -0.242559 0
vn 0.97013 0.242586 0
vn 0.97013 0.242586 4.96022e-17
vn 0.970151 0.242503 5.97511e-17
vn 0.970151 0.242503 -5.97511e-17
vn 0.97013 0.242586 -4.96022e-17
vn 0.970171 0.242421 0
vn 0.97016 0.242467 3.49501e-17
vn 0.97016 0.242467 -3.49501e-17
vn 0.970148 0.242513 0
vn 0.970148 0.242513 0
vn 0.970148 0.242513 0
vn 0 1 0
vn 0 1 0
vn 0 1 0
vn 0 1 0
vn 0 1 0
vn -0.970148 0.242513 0
vn -0.970148 0.242513 0
vn -0.970131 0.242582 6.64006e-17
vn -0.970131 0.242582 -6.64006e-17
vn -0.970148 0.242513 0
vn -0.970114 0.242651 0
vn -0.970133 0.242572 5.15193e-17
vn -0.970133 0.242572 -5.15193e-17
vn -0.970153 0.242494 0
vn -0.970153 0.242494 -2.97626e-17
vn -0.970153 0.242494 2.97626e-17
vn 0 -1 0
vn 0 -1 0
vn 0 -1 0
vn 0 -1 0
vn 0 -1 0
vn 0.970157 -0.242476 0
vn 0.970157 -0.242476 -9.92097e-18
vn 0.970157 -0.242476 -9.92097e-18
vn 0.970157 -0.242476 9.92097e-18
vn 0.970157 -0.242476 9.92097e-18
vn 0 -1 0
vn 0 -1 0
vn 0 -1 0
vn 0 -1 0
vn 0 -1 0
vn -0.970139 -0.242549 0
vn -0.970139 -0.242549 2.97618e-17
vn -0.970139 -0.242549 2.97618e-17
vn -0.970139 -0.242549 -2.97618e-17
vn -0.970139 -0.242549 -2.97618e-17
vn 0 -1 0
vn 0 -1 0
vn 0 -1 0
vn 0 -1 0
vn 0 -1 0


# Faces: 
usemtl material0
f 29/11/1 30/12/1 28/10/1
f 28/10/1 30/12/1 31/13/1
f 27/9/1 31/13/1 6/3/1
f 31/13/1 27/9/1 28/10/1
f 27/9/1 4/1/1 26/8/1
f 4/1/1 27/9/1 6/3/1
f 6/3/1 31/13/1 32/14/1
f 32/14/1 23/5/1 24/6/1
f 23/5/1 32/14/1 33/15/1
f 33/15/1 22/4/1 23/5/1
f 5/2/1 6/3/1 32/14/1
f 4/1/1 25/7/1 26/8/1
f 25/7/1 4/1/1 24/6/1
f 5/2/1 24/6/1 4/1/1
f 24/6/1 5/2/1 32/14/1
f 18/27/2 17/26/2 16/25/2
f 18/27/2 16/25/2 19/28/2
f 19/28/2 15/24/2 3/18/2
f 15/24/2 19/28/2 16/25/2
f 1/16/2 15/24/2 14/23/2
f 15/24/2 1/16/2 3/18/2
f 19/28/2 3/18/2 20/29/2
f 11/20/2 20/29/2 12/21/2
f 20/29/2 11/20/2 21/30/2
f 10/19/2 21/30/2 11/20/2
f 3/18/2 2/17/2 20/29/2
f 13/22/2 1/16/2 14/23/2
f 1/16/2 13/22/2 12/21/2
f 12/21/2 2/17/2 1/16/2
f 2/17/2 12/21/2 20/29/2
f 7/43/3 1/31/4 2/32/5
f 7/43/3 2/32/5 5/38/6
f 7/43/3 5/38/6 4/37/7
f 7/43/3 4/37/7 1/31/4
f 8/44/8 2/33/9 3/34/10
f 8/44/8 3/34/10 6/40/11
f 8/44/8 6/40/11 5/39/12
f 8/44/8 5/39/12 2/33/9
f 9/45/13 3/35/14 1/36/15
f 9/45/13 1/36/15 4/42/16
f 9/45/13 4/42/16 6/41/17
f 9/45/13 6/41/17 3/35/14
f 34/86/18 10/46/19 11/47/20
f 34/86/18 11/47/20 23/67/21
f 34/86/18 23/67/21 22/66/22
f 34/86/18 22/66/22 10/46/19
f 35/87/23 11/47/20 12/48/24
f 35/87/23 12/48/24 24/68/25
f 35/87/23 24/68/25 23/67/21
f 35/87/23 23/67/21 11/47/20
f 36/88/26 12/48/24 13/49/27
f 36/88/26 13/49/27 25/69/28
f 36/88/26 25/69/28 24/68/25
f 36/88/26 24/68/25 12/48/24
f 37/89/29 13/50/30 14/51/31
f 37/89/29 14/51/31 26/71/32
f 37/89/29 26/71/32 25/70/33
f 37/89/29 25/70/33 13/50/30
f 38/90/34 14/52/35 15/53/36
f 38/90/34 15/53/36 27/73/37
f 38/90/34 27/73/37 26/72/38
f 38/90/34 26/72/38 14/52/35
f 39/91/39 15/53/36 16/54/40
f 39/91/39 16/54/40 28/74/41
f 39/91/39 28/74/41 27/73/37
f 39/91/39 27/73/37 15/53/36
f 40/92/42 16/54/40 17/55/43
f 40/92/42 17/55/43 29/75/44
f 40/92/42 29/75/44 28/74/41
f 40/92/42 28/74/41 16/54/40
f 41/93/45 17/56/46 18/57/47
f 41/93/45 18/57/47 30/77/48
f 41/93/45 30/77/48 29/76/49
f 41/93/45 29/76/49 17/56/46
f 42/94/50 18/58/51 19/59/52
f 42/94/50 19/59/52 31/79/53
f 42/94/50 31/79/53 30/78/54
f 42/94/50 30/78/54 18/58/51
f 43/95/55 19/60/56 20/61/57
f 43/95/55 20/61/57 32/81/58
f 43/95/55 32/81/58 31/80/59
f 43/95/55 31/80/59 19/60/56
f 44/96/60 20/62/61 21/63/62
f 44/96/60 21/63/62 33/83/63
f 44/96/60 33/83/63 32/82/64
f 44/96/60 32/82/64 20/62/61
f 45/97/65 21/64/66 10/65/67
f 45/97/65 10/65/67 22/85/68
f 45/97/65 22/85/68 33/84/69
f 45/97/65 33/84/69 21/64/66
