mtllib Asset 88.mtl
# Vertex Positions: 
g groupNumber_0
v 0.393497 0.821208 -0.1765
v 0.393497 -0.821208 -0.1765
v -0.393497 -0.821208 -0.1765
v -0.393497 0.821208 -0.1765
v 0.393497 0.821208 0.1765
v 0.393497 -0.821208 0.1765
v -0.393497 -0.821208 0.1765
v -0.393497 0.821208 0.1765
v 0.393497 -1.42109e-14 0
v 0 -0.821208 0
v -0.393497 -1.42109e-14 0
v 0 0.821208 0
v 0.461925 -0.889636 -0.1765
v 0.461925 0.889636 -0.1765
v -0.461925 0.889636 -0.1765
v -0.461925 -0.889636 -0.1765
v 0.461925 -0.889636 0.1765
v 0.461925 0.889636 0.1765
v -0.461925 0.889636 0.1765
v -0.461925 -0.889636 0.1765
v 0.461925 -1.42109e-14 0
v 0 0.889636 0
v -0.461925 -1.42109e-14 0
v 0 -0.889636 0


# Vertex Texture Coordinates :
vt 0.238927 0.477854
vt 0.238927 0.0191126
vt 0.0191126 0.0191126
vt 0.0191126 0.477854
vt 0.25804 0
vt 0.25804 0.496967
vt 0 0.496967
vt 0 0
vt 0.0191126 0.980887
vt 0.0191126 0.522146
vt 0.238927 0.522146
vt 0.238927 0.980887
vt 0 0.503033
vt 0 1
vt 0.25804 1
vt 0.25804 0.503033
vt 0.264124 2.24987e-05
vt 0.722865 2.24987e-05
vt 0.728952 2.24987e-05
vt 0.948767 2.24987e-05
vt 0.264124 0.10473
vt 0.722865 0.10473
vt 0.728952 0.10473
vt 0.948767 0.10473
vt 0.264124 0.0986186
vt 0.722865 0.0986186
vt 0.728952 0.0986186
vt 0.948767 0.0986186
vt 0.264124 0.203326
vt 0.722865 0.203326
vt 0.728952 0.203326
vt 0.948767 0.203326
vt 0.493494 0.0493206
vt 0.83886 0.0493206
vt 0.493494 0.154028
vt 0.83886 0.154028
vt 0.264121 0.209438
vt 0.761087 0.209438
vt 0.264135 0.314145
vt 0.522175 0.314145
vt 0.264121 0.418853
vt 0.761087 0.418853
vt 0.52827 0.314145
vt 0.78631 0.314145
vt 0.264121 0.308034
vt 0.761087 0.308034
vt 0.264135 0.412741
vt 0.522175 0.412741
vt 0.264121 0.517449
vt 0.761087 0.517449
vt 0.52827 0.412741
vt 0.78631 0.412741
vt 0.512604 0.258736
vt 0.393155 0.363443
vt 0.512604 0.468151
vt 0.65729 0.363443


# Vertex Surface Normals: 
vn 0 0 1
vn 0 0 -1
vn -1 0 0
vn -1 0 0
vn -1 0 0
vn -1 0 0
vn -1 0 0
vn 0 1 0
vn 0 1 0
vn 0 1 0
vn 0 1 0
vn 0 1 0
vn 1 0 0
vn 1 0 0
vn 1 0 0
vn 1 0 0
vn 1 0 0
vn 0 -1 0
vn 0 -1 0
vn 0 -1 0
vn 0 -1 0
vn 0 -1 0
vn 1 0 0
vn 1 0 0
vn 1 0 0
vn 1 0 0
vn 1 0 0
vn 0 1 0
vn 0 1 0
vn 0 1 0
vn 0 1 0
vn 0 1 0
vn -1 0 0
vn -1 0 0
vn -1 0 0
vn -1 0 0
vn -1 0 0
vn 0 -1 0
vn 0 -1 0
vn 0 -1 0
vn 0 -1 0
vn 0 -1 0


# Faces: 
usemtl material0
f 20/8/1 7/3/1 8/4/1
f 7/3/1 20/8/1 17/5/1
f 19/7/1 8/4/1 5/1/1
f 8/4/1 19/7/1 20/8/1
f 6/2/1 17/5/1 18/6/1
f 17/5/1 6/2/1 7/3/1
f 5/1/1 18/6/1 19/7/1
f 18/6/1 5/1/1 6/2/1
f 3/11/2 16/16/2 4/12/2
f 16/16/2 3/11/2 13/13/2
f 4/12/2 15/15/2 1/9/2
f 15/15/2 4/12/2 16/16/2
f 13/13/2 2/10/2 14/14/2
f 2/10/2 13/13/2 3/11/2
f 14/14/2 1/9/2 15/15/2
f 1/9/2 14/14/2 2/10/2
f 9/33/3 1/17/4 2/18/5
f 9/33/3 2/18/5 6/26/6
f 9/33/3 6/26/6 5/25/7
f 9/33/3 5/25/7 1/17/4
f 10/34/8 2/19/9 3/20/10
f 10/34/8 3/20/10 7/28/11
f 10/34/8 7/28/11 6/27/12
f 10/34/8 6/27/12 2/19/9
f 11/35/13 3/21/14 4/22/15
f 11/35/13 4/22/15 8/30/16
f 11/35/13 8/30/16 7/29/17
f 11/35/13 7/29/17 3/21/14
f 12/36/18 4/23/19 1/24/20
f 12/36/18 1/24/20 5/32/21
f 12/36/18 5/32/21 8/31/22
f 12/36/18 8/31/22 4/23/19
f 21/53/23 13/37/24 14/38/25
f 21/53/23 14/38/25 18/46/26
f 21/53/23 18/46/26 17/45/27
f 21/53/23 17/45/27 13/37/24
f 22/54/28 14/39/29 15/40/30
f 22/54/28 15/40/30 19/48/31
f 22/54/28 19/48/31 18/47/32
f 22/54/28 18/47/32 14/39/29
f 23/55/33 15/41/34 16/42/35
f 23/55/33 16/42/35 20/50/36
f 23/55/33 20/50/36 19/49/37
f 23/55/33 19/49/37 15/41/34
f 24/56/38 16/43/39 13/44/40
f 24/56/38 13/44/40 17/52/41
f 24/56/38 17/52/41 20/51/42
f 24/56/38 20/51/42 16/43/39
