mtllib Asset 89.mtl
# Vertex Positions: 
g groupNumber_0
v 0.461925 -0.889636 -0.1765
v 0.461925 0.889636 -0.1765
v 0.393497 0.889636 -0.1765
v 0.393497 -0.710481 -0.1765
v -0.406562 0.889636 -0.1765
v -0.461925 0.889636 -0.1765
v -0.461925 -0.889636 -0.1765
v -0.393497 -0.889636 -0.1765
v -0.393497 0.710481 -0.1765
v 0.406562 -0.889636 -0.1765
v 0.461925 -0.889636 0.1765
v 0.461925 0.889636 0.1765
v 0.393497 0.889636 0.1765
v 0.393497 -0.710481 0.1765
v -0.406562 0.889636 0.1765
v -0.461925 0.889636 0.1765
v -0.461925 -0.889636 0.1765
v -0.393497 -0.889636 0.1765
v -0.393497 0.710481 0.1765
v 0.406562 -0.889636 0.1765
v 0.461925 0 0
v 0.427711 0.889636 0
v 0.393497 0.0895772 0
v -0.00653257 0.0895772 0
v -0.434243 0.889636 0
v -0.461925 0 0
v -0.427711 -0.889636 0
v -0.393497 -0.0895772 0
v 0.00653257 -0.0895772 0
v 0.434243 -0.889636 0


# Vertex Texture Coordinates :
vt 0.258024 0
vt 0.258024 0.496936
vt 0.238912 0.496936
vt 0.238912 0.0500363
vt 0.0154624 0.496936
vt 0 0.496936
vt 0 0
vt 0.0191114 0
vt 0.0191114 0.446899
vt 0.242561 0
vt 0 0.503064
vt 0 1
vt 0.0191114 1
vt 0.0191114 0.553101
vt 0.242561 1
vt 0.258024 1
vt 0.258024 0.503064
vt 0.238912 0.503064
vt 0.238912 0.949964
vt 0.0154624 0.503064
vt 0.264185 3.31083e-05
vt 0.761121 3.31083e-05
vt 0.767255 3.31083e-05
vt 0.786366 3.31083e-05
vt 0.264197 0.104818
vt 0.711096 0.104818
vt 0.264171 0.209603
vt 0.763819 0.209603
vt 0.792501 3.31083e-05
vt 0.807963 3.31083e-05
vt 0.264185 0.314387
vt 0.761121 0.314387
vt 0.814097 3.31083e-05
vt 0.833209 3.31083e-05
vt 0.264197 0.419172
vt 0.711096 0.419172
vt 0.264171 0.523957
vt 0.763819 0.523957
vt 0.839343 3.31083e-05
vt 0.854805 3.31083e-05
vt 0.264185 0.0986231
vt 0.761121 0.0986231
vt 0.767255 0.0986231
vt 0.786366 0.0986231
vt 0.264197 0.203408
vt 0.711096 0.203408
vt 0.264171 0.308193
vt 0.763819 0.308193
vt 0.792501 0.0986231
vt 0.807963 0.0986231
vt 0.264185 0.412977
vt 0.761121 0.412977
vt 0.814097 0.0986231
vt 0.833209 0.0986231
vt 0.264197 0.517762
vt 0.711096 0.517762
vt 0.264171 0.622547
vt 0.763819 0.622547
vt 0.839343 0.0986231
vt 0.854805 0.0986231
vt 0.512653 0.0493281
vt 0.776811 0.0493281
vt 0.487646 0.154113
vt 0.513995 0.258898
vt 0.800232 0.0493281
vt 0.512653 0.363682
vt 0.823653 0.0493281
vt 0.487646 0.468467
vt 0.513995 0.573252
vt 0.847074 0.0493281


# Vertex Surface Normals: 
vn 0 0 1
vn 0 0 -1
vn 1 0 0
vn 1 0 0
vn 1 0 0
vn 1 0 0
vn 1 0 0
vn 0 1 0
vn 0 1 0
vn 0 1 0
vn 0 1 0
vn 0 1 0
vn -1 0 0
vn -1 0 0
vn -1 0 0
vn -1 0 0
vn -1 0 0
vn 0.894427 0.447214 0
vn 0.894427 0.447214 0
vn 0.894427 0.447214 0
vn 0.894427 0.447214 0
vn 0.894427 0.447214 0
vn 0 1 0
vn 0 1 0
vn 0 1 0
vn 0 1 0
vn 0 1 0
vn -1 0 0
vn -1 0 0
vn -1 0 0
vn -1 0 0
vn -1 0 0
vn 0 -1 0
vn 0 -1 0
vn 0 -1 0
vn 0 -1 0
vn 0 -1 0
vn 1 0 0
vn 1 0 0
vn 1 0 0
vn 1 0 0
vn 1 0 0
vn -0.894427 -0.447214 0
vn -0.894427 -0.447214 0
vn -0.894427 -0.447214 0
vn -0.894427 -0.447214 0
vn -0.894427 -0.447214 0
vn 0 -1 0
vn 0 -1 0
vn 0 -1 0
vn 0 -1 0
vn 0 -1 0


# Faces: 
usemtl material0
f 17/7/1 18/8/1 19/9/1
f 16/6/1 19/9/1 15/5/1
f 19/9/1 16/6/1 17/7/1
f 19/9/1 14/4/1 15/5/1
f 20/10/1 11/1/1 14/4/1
f 14/4/1 12/2/1 13/3/1
f 12/2/1 14/4/1 11/1/1
f 14/4/1 19/9/1 20/10/1
f 8/18/2 7/17/2 9/19/2
f 9/19/2 6/16/2 5/15/2
f 6/16/2 9/19/2 7/17/2
f 4/14/2 9/19/2 5/15/2
f 1/11/2 10/20/2 4/14/2
f 2/12/2 4/14/2 3/13/2
f 4/14/2 2/12/2 1/11/2
f 9/19/2 4/14/2 10/20/2
f 21/61/3 1/21/4 2/22/5
f 21/61/3 2/22/5 12/42/6
f 21/61/3 12/42/6 11/41/7
f 21/61/3 11/41/7 1/21/4
f 22/62/8 2/23/9 3/24/10
f 22/62/8 3/24/10 13/44/11
f 22/62/8 13/44/11 12/43/12
f 22/62/8 12/43/12 2/23/9
f 23/63/13 3/25/14 4/26/15
f 23/63/13 4/26/15 14/46/16
f 23/63/13 14/46/16 13/45/17
f 23/63/13 13/45/17 3/25/14
f 24/64/18 4/27/19 5/28/20
f 24/64/18 5/28/20 15/48/21
f 24/64/18 15/48/21 14/47/22
f 24/64/18 14/47/22 4/27/19
f 25/65/23 5/29/24 6/30/25
f 25/65/23 6/30/25 16/50/26
f 25/65/23 16/50/26 15/49/27
f 25/65/23 15/49/27 5/29/24
f 26/66/28 6/31/29 7/32/30
f 26/66/28 7/32/30 17/52/31
f 26/66/28 17/52/31 16/51/32
f 26/66/28 16/51/32 6/31/29
f 27/67/33 7/33/34 8/34/35
f 27/67/33 8/34/35 18/54/36
f 27/67/33 18/54/36 17/53/37
f 27/67/33 17/53/37 7/33/34
f 28/68/38 8/35/39 9/36/40
f 28/68/38 9/36/40 19/56/41
f 28/68/38 19/56/41 18/55/42
f 28/68/38 18/55/42 8/35/39
f 29/69/43 9/37/44 10/38/45
f 29/69/43 10/38/45 20/58/46
f 29/69/43 20/58/46 19/57/47
f 29/69/43 19/57/47 9/37/44
f 30/70/48 10/39/49 1/40/50
f 30/70/48 1/40/50 11/60/51
f 30/70/48 11/60/51 20/59/52
f 30/70/48 20/59/52 10/39/49
